<svg xmlns="http://www.w3.org/2000/svg" viewBox="0 0 1260 540" preserveAspectRatio="xMidYMid slice" role="img">
<defs>
<linearGradient id="bg" x1="0" y1="0" x2="0" y2="1"><stop offset="0" stop-color="#0b0220"/><stop offset="1" stop-color="#2c0f5c"/></linearGradient>
<linearGradient id="sun" x1="0" y1="0" x2="0" y2="1"><stop offset="0" stop-color="#ff2fd0"/><stop offset="1" stop-color="#7b2ff7"/></linearGradient>
<linearGradient id="sg" gradientUnits="userSpaceOnUse" x1="0" y1="0" x2="600" y2="300"><stop offset="0" stop-color="#ff2fd0"/><stop offset="1" stop-color="#00e5ff"/></linearGradient>
<mask id="sm"><rect width="1260" height="540" fill="#fff"/><rect x="0" y="263.6" width="1260" height="4.5" fill="#000"/><rect x="0" y="278.4" width="1260" height="6.0" fill="#000"/><rect x="0" y="296.4" width="1260" height="7.5" fill="#000"/><rect x="0" y="317.6" width="1260" height="9.0" fill="#000"/><rect x="0" y="342.0" width="1260" height="10.5" fill="#000"/><rect x="0" y="369.6" width="1260" height="12.0" fill="#000"/><rect x="0" y="400.4" width="1260" height="13.5" fill="#000"/><rect x="0" y="434.4" width="1260" height="15.0" fill="#000"/></mask>
<filter id="gl" x="-20%" y="-30%" width="140%" height="160%"><feGaussianBlur stdDeviation="9"/></filter>
<g id="fg" fill="#12062a" fill-opacity="0.93" stroke="url(#sg)" stroke-width="4" stroke-linejoin="round" stroke-linecap="round"><path d="M118 150 Q128 98 200 96 L400 96 Q472 98 482 150 L506 236 Q514 274 482 274 Q454 274 440 242 L420 208 L180 208 L160 242 Q146 274 118 274 Q86 274 94 236 Z" /><rect x="250" y="110" width="100" height="42" rx="12" fill="none" stroke-width="2" stroke-opacity="0.7"/><polygon points="190,132 212,132 212,146 226,146 226,168 212,168 212,182 190,182 190,168 176,168 176,146 190,146" fill="none" stroke-width="2" stroke-opacity="0.7"/><circle cx="414" cy="134" r="9" fill="none" stroke-width="2" stroke-opacity="0.7"/><circle cx="440" cy="160" r="9" fill="none" stroke-width="2" stroke-opacity="0.7"/><circle cx="388" cy="160" r="9" fill="none" stroke-width="2" stroke-opacity="0.7"/><circle cx="414" cy="186" r="9" fill="none" stroke-width="2" stroke-opacity="0.7"/><circle cx="256" cy="184" r="24" fill="none" stroke-width="2" stroke-opacity="0.7"/><circle cx="344" cy="184" r="24" fill="none" stroke-width="2" stroke-opacity="0.7"/></g>
</defs>
<rect width="1260" height="540" fill="url(#bg)"/>
<circle cx="965" cy="178" r="2" fill="#fff" fill-opacity="0.4"/><circle cx="1094" cy="244" r="1.5" fill="#fff" fill-opacity="0.6"/><circle cx="275" cy="227" r="1" fill="#fff" fill-opacity="0.9"/><circle cx="718" cy="239" r="1" fill="#fff" fill-opacity="0.4"/><circle cx="953" cy="54" r="1.5" fill="#fff" fill-opacity="0.4"/><circle cx="1181" cy="218" r="1" fill="#fff" fill-opacity="0.9"/><circle cx="933" cy="254" r="1" fill="#fff" fill-opacity="0.9"/><circle cx="549" cy="264" r="1" fill="#fff" fill-opacity="0.4"/><circle cx="832" cy="85" r="1" fill="#fff" fill-opacity="0.6"/><circle cx="1144" cy="69" r="1" fill="#fff" fill-opacity="0.4"/><circle cx="159" cy="86" r="2" fill="#fff" fill-opacity="0.4"/><circle cx="37" cy="178" r="1" fill="#fff" fill-opacity="0.4"/><circle cx="1234" cy="149" r="1" fill="#fff" fill-opacity="0.4"/><circle cx="789" cy="161" r="1" fill="#fff" fill-opacity="0.6"/><circle cx="358" cy="282" r="2" fill="#fff" fill-opacity="0.6"/><circle cx="908" cy="211" r="1" fill="#fff" fill-opacity="0.9"/><circle cx="190" cy="54" r="1" fill="#fff" fill-opacity="0.6"/><circle cx="777" cy="233" r="1" fill="#fff" fill-opacity="0.9"/><circle cx="1002" cy="224" r="1.5" fill="#fff" fill-opacity="0.4"/><circle cx="522" cy="20" r="1" fill="#fff" fill-opacity="0.6"/><circle cx="867" cy="123" r="1" fill="#fff" fill-opacity="0.9"/><circle cx="265" cy="68" r="2" fill="#fff" fill-opacity="0.9"/><circle cx="265" cy="208" r="1.5" fill="#fff" fill-opacity="0.6"/><circle cx="48" cy="209" r="1" fill="#fff" fill-opacity="0.9"/><circle cx="1198" cy="29" r="1" fill="#fff" fill-opacity="0.9"/><circle cx="957" cy="167" r="1" fill="#fff" fill-opacity="0.4"/><circle cx="575" cy="134" r="1" fill="#fff" fill-opacity="0.4"/><circle cx="796" cy="275" r="2" fill="#fff" fill-opacity="0.9"/><circle cx="116" cy="155" r="1.5" fill="#fff" fill-opacity="0.9"/><circle cx="416" cy="46" r="2" fill="#fff" fill-opacity="0.6"/><circle cx="1148" cy="123" r="2" fill="#fff" fill-opacity="0.6"/><circle cx="46" cy="75" r="1" fill="#fff" fill-opacity="0.4"/><circle cx="137" cy="176" r="1.5" fill="#fff" fill-opacity="0.6"/><circle cx="315" cy="44" r="1" fill="#fff" fill-opacity="0.6"/><circle cx="385" cy="18" r="1" fill="#fff" fill-opacity="0.4"/><circle cx="614" cy="26" r="1" fill="#fff" fill-opacity="0.4"/><circle cx="969" cy="138" r="1.5" fill="#fff" fill-opacity="0.4"/><circle cx="942" cy="180" r="1" fill="#fff" fill-opacity="0.6"/><circle cx="920" cy="139" r="1.5" fill="#fff" fill-opacity="0.6"/><circle cx="877" cy="200" r="1.5" fill="#fff" fill-opacity="0.6"/><circle cx="342" cy="35" r="1.5" fill="#fff" fill-opacity="0.9"/><circle cx="1019" cy="223" r="1" fill="#fff" fill-opacity="0.9"/><circle cx="843" cy="165" r="1" fill="#fff" fill-opacity="0.4"/><circle cx="619" cy="91" r="1" fill="#fff" fill-opacity="0.9"/><circle cx="847" cy="117" r="1" fill="#fff" fill-opacity="0.9"/><circle cx="918" cy="135" r="1" fill="#fff" fill-opacity="0.6"/>
<circle cx="630.0" cy="362" r="200" fill="url(#sun)" mask="url(#sm)" opacity="0.92"/>
<rect y="372" width="1260" height="168" fill="#0a0318"/>
<line x1="0" y1="374" x2="1260" y2="374" stroke="#00e5ff" stroke-opacity="0.35" stroke-width="2"/><line x1="0" y1="380" x2="1260" y2="380" stroke="#00e5ff" stroke-opacity="0.35" stroke-width="2"/><line x1="0" y1="390" x2="1260" y2="390" stroke="#00e5ff" stroke-opacity="0.35" stroke-width="2"/><line x1="0" y1="405" x2="1260" y2="405" stroke="#00e5ff" stroke-opacity="0.35" stroke-width="2"/><line x1="0" y1="423" x2="1260" y2="423" stroke="#00e5ff" stroke-opacity="0.35" stroke-width="2"/><line x1="0" y1="446" x2="1260" y2="446" stroke="#00e5ff" stroke-opacity="0.35" stroke-width="2"/><line x1="0" y1="473" x2="1260" y2="473" stroke="#00e5ff" stroke-opacity="0.35" stroke-width="2"/><line x1="0" y1="504" x2="1260" y2="504" stroke="#00e5ff" stroke-opacity="0.35" stroke-width="2"/><line x1="0" y1="540" x2="1260" y2="540" stroke="#00e5ff" stroke-opacity="0.35" stroke-width="2"/><line x1="630.0" y1="372" x2="-870.0" y2="540" stroke="#00e5ff" stroke-opacity="0.3" stroke-width="2"/><line x1="630.0" y1="372" x2="-720.0" y2="540" stroke="#00e5ff" stroke-opacity="0.3" stroke-width="2"/><line x1="630.0" y1="372" x2="-570.0" y2="540" stroke="#00e5ff" stroke-opacity="0.3" stroke-width="2"/><line x1="630.0" y1="372" x2="-420.0" y2="540" stroke="#00e5ff" stroke-opacity="0.3" stroke-width="2"/><line x1="630.0" y1="372" x2="-270.0" y2="540" stroke="#00e5ff" stroke-opacity="0.3" stroke-width="2"/><line x1="630.0" y1="372" x2="-120.0" y2="540" stroke="#00e5ff" stroke-opacity="0.3" stroke-width="2"/><line x1="630.0" y1="372" x2="30.0" y2="540" stroke="#00e5ff" stroke-opacity="0.3" stroke-width="2"/><line x1="630.0" y1="372" x2="180.0" y2="540" stroke="#00e5ff" stroke-opacity="0.3" stroke-width="2"/><line x1="630.0" y1="372" x2="330.0" y2="540" stroke="#00e5ff" stroke-opacity="0.3" stroke-width="2"/><line x1="630.0" y1="372" x2="480.0" y2="540" stroke="#00e5ff" stroke-opacity="0.3" stroke-width="2"/><line x1="630.0" y1="372" x2="630.0" y2="540" stroke="#00e5ff" stroke-opacity="0.3" stroke-width="2"/><line x1="630.0" y1="372" x2="780.0" y2="540" stroke="#00e5ff" stroke-opacity="0.3" stroke-width="2"/><line x1="630.0" y1="372" x2="930.0" y2="540" stroke="#00e5ff" stroke-opacity="0.3" stroke-width="2"/><line x1="630.0" y1="372" x2="1080.0" y2="540" stroke="#00e5ff" stroke-opacity="0.3" stroke-width="2"/><line x1="630.0" y1="372" x2="1230.0" y2="540" stroke="#00e5ff" stroke-opacity="0.3" stroke-width="2"/><line x1="630.0" y1="372" x2="1380.0" y2="540" stroke="#00e5ff" stroke-opacity="0.3" stroke-width="2"/><line x1="630.0" y1="372" x2="1530.0" y2="540" stroke="#00e5ff" stroke-opacity="0.3" stroke-width="2"/><line x1="630.0" y1="372" x2="1680.0" y2="540" stroke="#00e5ff" stroke-opacity="0.3" stroke-width="2"/><line x1="630.0" y1="372" x2="1830.0" y2="540" stroke="#00e5ff" stroke-opacity="0.3" stroke-width="2"/><line x1="630.0" y1="372" x2="1980.0" y2="540" stroke="#00e5ff" stroke-opacity="0.3" stroke-width="2"/><line x1="630.0" y1="372" x2="2130.0" y2="540" stroke="#00e5ff" stroke-opacity="0.3" stroke-width="2"/>
<ellipse cx="630.0" cy="442" rx="300" ry="20" fill="#000" opacity="0.45"/>
<g transform="translate(240 66) scale(1.3)"><use href="#fg" filter="url(#gl)" opacity="0.85"/><use href="#fg"/></g>
</svg>