<svg xmlns="http://www.w3.org/2000/svg" viewBox="0 0 1260 540" preserveAspectRatio="xMidYMid slice" role="img">
<defs>
<linearGradient id="bg" x1="0" y1="0" x2="0" y2="1"><stop offset="0" stop-color="#0b0220"/><stop offset="1" stop-color="#42106b"/></linearGradient>
<linearGradient id="sun" x1="0" y1="0" x2="0" y2="1"><stop offset="0" stop-color="#ffd166"/><stop offset="1" stop-color="#ff2fd0"/></linearGradient>
<linearGradient id="sg" gradientUnits="userSpaceOnUse" x1="0" y1="0" x2="600" y2="300"><stop offset="0" stop-color="#00e5ff"/><stop offset="1" stop-color="#ff2fd0"/></linearGradient>
<mask id="sm"><rect width="1260" height="540" fill="#fff"/><rect x="0" y="263.6" width="1260" height="4.5" fill="#000"/><rect x="0" y="278.4" width="1260" height="6.0" fill="#000"/><rect x="0" y="296.4" width="1260" height="7.5" fill="#000"/><rect x="0" y="317.6" width="1260" height="9.0" fill="#000"/><rect x="0" y="342.0" width="1260" height="10.5" fill="#000"/><rect x="0" y="369.6" width="1260" height="12.0" fill="#000"/><rect x="0" y="400.4" width="1260" height="13.5" fill="#000"/><rect x="0" y="434.4" width="1260" height="15.0" fill="#000"/></mask>
<filter id="gl" x="-20%" y="-30%" width="140%" height="160%"><feGaussianBlur stdDeviation="9"/></filter>
<g id="fg" fill="#12062a" fill-opacity="0.93" stroke="url(#sg)" stroke-width="4" stroke-linejoin="round" stroke-linecap="round"><rect x="190" y="100" width="150" height="48" rx="6" /><rect x="340" y="104" width="120" height="40" rx="6" /><rect x="460" y="118" width="140" height="14" rx="3" /><rect x="598" y="112" width="26" height="26" rx="4" /><polygon points="266,148 316,148 322,236 274,236" /><polygon points="205,148 252,148 238,232 196,226" /><path d="M190 108 L66 132 Q46 138 48 162 L54 212 Q56 224 70 222 L190 160 Z" /><rect x="232" y="60" width="180" height="24" rx="11" /><rect x="256" y="84" width="14" height="18" rx="2" /><rect x="372" y="84" width="14" height="18" rx="2" /><circle cx="232" cy="72" r="14" fill="none" stroke-width="2" stroke-opacity="0.7"/><circle cx="412" cy="72" r="14" fill="none" stroke-width="2" stroke-opacity="0.7"/></g>
</defs>
<rect width="1260" height="540" fill="url(#bg)"/>
<circle cx="149" cy="258" r="2" fill="#fff" fill-opacity="0.6"/><circle cx="476" cy="94" r="1" fill="#fff" fill-opacity="0.6"/><circle cx="124" cy="274" r="2" fill="#fff" fill-opacity="0.9"/><circle cx="1147" cy="87" r="1" fill="#fff" fill-opacity="0.6"/><circle cx="602" cy="22" r="1" fill="#fff" fill-opacity="0.9"/><circle cx="197" cy="270" r="1" fill="#fff" fill-opacity="0.6"/><circle cx="1002" cy="120" r="2" fill="#fff" fill-opacity="0.4"/><circle cx="948" cy="271" r="2" fill="#fff" fill-opacity="0.4"/><circle cx="428" cy="175" r="1" fill="#fff" fill-opacity="0.6"/><circle cx="1028" cy="51" r="1" fill="#fff" fill-opacity="0.6"/><circle cx="128" cy="113" r="2" fill="#fff" fill-opacity="0.4"/><circle cx="279" cy="236" r="2" fill="#fff" fill-opacity="0.4"/><circle cx="833" cy="33" r="1" fill="#fff" fill-opacity="0.9"/><circle cx="183" cy="269" r="1.5" fill="#fff" fill-opacity="0.6"/><circle cx="488" cy="62" r="2" fill="#fff" fill-opacity="0.4"/><circle cx="432" cy="211" r="2" fill="#fff" fill-opacity="0.6"/><circle cx="1107" cy="257" r="1" fill="#fff" fill-opacity="0.9"/><circle cx="41" cy="257" r="1.5" fill="#fff" fill-opacity="0.4"/><circle cx="152" cy="139" r="2" fill="#fff" fill-opacity="0.4"/><circle cx="1076" cy="214" r="1.5" fill="#fff" fill-opacity="0.6"/><circle cx="1109" cy="220" r="1" fill="#fff" fill-opacity="0.6"/><circle cx="586" cy="48" r="1" fill="#fff" fill-opacity="0.4"/><circle cx="1049" cy="147" r="1" fill="#fff" fill-opacity="0.4"/><circle cx="485" cy="106" r="2" fill="#fff" fill-opacity="0.4"/><circle cx="707" cy="191" r="1" fill="#fff" fill-opacity="0.9"/><circle cx="814" cy="274" r="1" fill="#fff" fill-opacity="0.4"/><circle cx="386" cy="58" r="2" fill="#fff" fill-opacity="0.4"/><circle cx="761" cy="18" r="1" fill="#fff" fill-opacity="0.9"/><circle cx="245" cy="101" r="2" fill="#fff" fill-opacity="0.4"/><circle cx="14" cy="267" r="2" fill="#fff" fill-opacity="0.9"/><circle cx="392" cy="20" r="1" fill="#fff" fill-opacity="0.4"/><circle cx="421" cy="68" r="1" fill="#fff" fill-opacity="0.9"/><circle cx="536" cy="104" r="1" fill="#fff" fill-opacity="0.9"/><circle cx="205" cy="253" r="1.5" fill="#fff" fill-opacity="0.4"/><circle cx="1107" cy="204" r="1.5" fill="#fff" fill-opacity="0.4"/><circle cx="577" cy="142" r="1" fill="#fff" fill-opacity="0.9"/><circle cx="949" cy="133" r="1" fill="#fff" fill-opacity="0.4"/><circle cx="793" cy="199" r="1.5" fill="#fff" fill-opacity="0.4"/><circle cx="880" cy="190" r="2" fill="#fff" fill-opacity="0.9"/><circle cx="301" cy="230" r="2" fill="#fff" fill-opacity="0.6"/><circle cx="25" cy="126" r="1" fill="#fff" fill-opacity="0.9"/><circle cx="25" cy="93" r="2" fill="#fff" fill-opacity="0.6"/><circle cx="933" cy="104" r="1.5" fill="#fff" fill-opacity="0.6"/><circle cx="690" cy="118" r="1.5" fill="#fff" fill-opacity="0.9"/><circle cx="1067" cy="231" r="1.5" fill="#fff" fill-opacity="0.9"/><circle cx="432" cy="106" r="1.5" fill="#fff" fill-opacity="0.4"/>
<circle cx="630.0" cy="362" r="200" fill="url(#sun)" mask="url(#sm)" opacity="0.92"/>
<rect y="372" width="1260" height="168" fill="#0a0318"/>
<line x1="0" y1="374" x2="1260" y2="374" stroke="#ff2fd0" stroke-opacity="0.35" stroke-width="2"/><line x1="0" y1="380" x2="1260" y2="380" stroke="#ff2fd0" stroke-opacity="0.35" stroke-width="2"/><line x1="0" y1="390" x2="1260" y2="390" stroke="#ff2fd0" stroke-opacity="0.35" stroke-width="2"/><line x1="0" y1="405" x2="1260" y2="405" stroke="#ff2fd0" stroke-opacity="0.35" stroke-width="2"/><line x1="0" y1="423" x2="1260" y2="423" stroke="#ff2fd0" stroke-opacity="0.35" stroke-width="2"/><line x1="0" y1="446" x2="1260" y2="446" stroke="#ff2fd0" stroke-opacity="0.35" stroke-width="2"/><line x1="0" y1="473" x2="1260" y2="473" stroke="#ff2fd0" stroke-opacity="0.35" stroke-width="2"/><line x1="0" y1="504" x2="1260" y2="504" stroke="#ff2fd0" stroke-opacity="0.35" stroke-width="2"/><line x1="0" y1="540" x2="1260" y2="540" stroke="#ff2fd0" stroke-opacity="0.35" stroke-width="2"/><line x1="630.0" y1="372" x2="-870.0" y2="540" stroke="#ff2fd0" stroke-opacity="0.3" stroke-width="2"/><line x1="630.0" y1="372" x2="-720.0" y2="540" stroke="#ff2fd0" stroke-opacity="0.3" stroke-width="2"/><line x1="630.0" y1="372" x2="-570.0" y2="540" stroke="#ff2fd0" stroke-opacity="0.3" stroke-width="2"/><line x1="630.0" y1="372" x2="-420.0" y2="540" stroke="#ff2fd0" stroke-opacity="0.3" stroke-width="2"/><line x1="630.0" y1="372" x2="-270.0" y2="540" stroke="#ff2fd0" stroke-opacity="0.3" stroke-width="2"/><line x1="630.0" y1="372" x2="-120.0" y2="540" stroke="#ff2fd0" stroke-opacity="0.3" stroke-width="2"/><line x1="630.0" y1="372" x2="30.0" y2="540" stroke="#ff2fd0" stroke-opacity="0.3" stroke-width="2"/><line x1="630.0" y1="372" x2="180.0" y2="540" stroke="#ff2fd0" stroke-opacity="0.3" stroke-width="2"/><line x1="630.0" y1="372" x2="330.0" y2="540" stroke="#ff2fd0" stroke-opacity="0.3" stroke-width="2"/><line x1="630.0" y1="372" x2="480.0" y2="540" stroke="#ff2fd0" stroke-opacity="0.3" stroke-width="2"/><line x1="630.0" y1="372" x2="630.0" y2="540" stroke="#ff2fd0" stroke-opacity="0.3" stroke-width="2"/><line x1="630.0" y1="372" x2="780.0" y2="540" stroke="#ff2fd0" stroke-opacity="0.3" stroke-width="2"/><line x1="630.0" y1="372" x2="930.0" y2="540" stroke="#ff2fd0" stroke-opacity="0.3" stroke-width="2"/><line x1="630.0" y1="372" x2="1080.0" y2="540" stroke="#ff2fd0" stroke-opacity="0.3" stroke-width="2"/><line x1="630.0" y1="372" x2="1230.0" y2="540" stroke="#ff2fd0" stroke-opacity="0.3" stroke-width="2"/><line x1="630.0" y1="372" x2="1380.0" y2="540" stroke="#ff2fd0" stroke-opacity="0.3" stroke-width="2"/><line x1="630.0" y1="372" x2="1530.0" y2="540" stroke="#ff2fd0" stroke-opacity="0.3" stroke-width="2"/><line x1="630.0" y1="372" x2="1680.0" y2="540" stroke="#ff2fd0" stroke-opacity="0.3" stroke-width="2"/><line x1="630.0" y1="372" x2="1830.0" y2="540" stroke="#ff2fd0" stroke-opacity="0.3" stroke-width="2"/><line x1="630.0" y1="372" x2="1980.0" y2="540" stroke="#ff2fd0" stroke-opacity="0.3" stroke-width="2"/><line x1="630.0" y1="372" x2="2130.0" y2="540" stroke="#ff2fd0" stroke-opacity="0.3" stroke-width="2"/>
<ellipse cx="630.0" cy="442" rx="300" ry="20" fill="#000" opacity="0.45"/>
<g transform="translate(240 66) scale(1.3)"><use href="#fg" filter="url(#gl)" opacity="0.85"/><use href="#fg"/></g>
</svg>