<svg xmlns="http://www.w3.org/2000/svg" viewBox="0 0 1260 540" preserveAspectRatio="xMidYMid slice" role="img">
<defs>
<linearGradient id="bg" x1="0" y1="0" x2="0" y2="1"><stop offset="0" stop-color="#0b0220"/><stop offset="1" stop-color="#42106b"/></linearGradient>
<linearGradient id="sun" x1="0" y1="0" x2="0" y2="1"><stop offset="0" stop-color="#ffd166"/><stop offset="1" stop-color="#ff2fd0"/></linearGradient>
<linearGradient id="sg" gradientUnits="userSpaceOnUse" x1="0" y1="0" x2="600" y2="300"><stop offset="0" stop-color="#00e5ff"/><stop offset="1" stop-color="#ff2fd0"/></linearGradient>
<mask id="sm"><rect width="1260" height="540" fill="#fff"/><rect x="0" y="263.6" width="1260" height="4.5" fill="#000"/><rect x="0" y="278.4" width="1260" height="6.0" fill="#000"/><rect x="0" y="296.4" width="1260" height="7.5" fill="#000"/><rect x="0" y="317.6" width="1260" height="9.0" fill="#000"/><rect x="0" y="342.0" width="1260" height="10.5" fill="#000"/><rect x="0" y="369.6" width="1260" height="12.0" fill="#000"/><rect x="0" y="400.4" width="1260" height="13.5" fill="#000"/><rect x="0" y="434.4" width="1260" height="15.0" fill="#000"/></mask>
<filter id="gl" x="-20%" y="-30%" width="140%" height="160%"><feGaussianBlur stdDeviation="9"/></filter>
<g id="fg" fill="#12062a" fill-opacity="0.93" stroke="url(#sg)" stroke-width="4" stroke-linejoin="round" stroke-linecap="round"><rect x="240" y="92" width="120" height="180" rx="18" /><rect x="250" y="62" width="100" height="32" rx="8" /><path d="M350 70 L412 52 Q424 50 424 62 L424 78 Q424 84 412 84 L350 92 Z" /><circle cx="262" cy="56" r="16" fill="none"/><rect x="240" y="150" width="120" height="56" rx="2" fill="none" stroke-width="2" stroke-opacity="0.7"/><path d="M258 158 L258 198" fill="none" stroke-width="2" stroke-opacity="0.7"/><path d="M286 158 L286 198" fill="none" stroke-width="2" stroke-opacity="0.7"/><path d="M314 158 L314 198" fill="none" stroke-width="2" stroke-opacity="0.7"/><path d="M342 158 L342 198" fill="none" stroke-width="2" stroke-opacity="0.7"/><path d="M300 120 L300 70 M240 150 L196 130 M360 150 L404 130 M246 100 L210 74 M354 100 L390 74" fill="none" stroke="#ffd166" stroke-width="5" stroke-linecap="round"/></g>
</defs>
<rect width="1260" height="540" fill="url(#bg)"/>
<circle cx="940" cy="20" r="1" fill="#fff" fill-opacity="0.4"/><circle cx="1045" cy="43" r="1" fill="#fff" fill-opacity="0.9"/><circle cx="1203" cy="205" r="2" fill="#fff" fill-opacity="0.4"/><circle cx="346" cy="67" r="2" fill="#fff" fill-opacity="0.9"/><circle cx="94" cy="12" r="1" fill="#fff" fill-opacity="0.6"/><circle cx="1113" cy="179" r="1.5" fill="#fff" fill-opacity="0.4"/><circle cx="588" cy="75" r="1" fill="#fff" fill-opacity="0.6"/><circle cx="101" cy="46" r="1.5" fill="#fff" fill-opacity="0.9"/><circle cx="583" cy="274" r="2" fill="#fff" fill-opacity="0.6"/><circle cx="535" cy="169" r="1" fill="#fff" fill-opacity="0.4"/><circle cx="92" cy="31" r="1" fill="#fff" fill-opacity="0.4"/><circle cx="576" cy="106" r="1" fill="#fff" fill-opacity="0.4"/><circle cx="624" cy="128" r="2" fill="#fff" fill-opacity="0.4"/><circle cx="18" cy="182" r="2" fill="#fff" fill-opacity="0.9"/><circle cx="575" cy="213" r="1" fill="#fff" fill-opacity="0.9"/><circle cx="314" cy="254" r="2" fill="#fff" fill-opacity="0.6"/><circle cx="1146" cy="119" r="1.5" fill="#fff" fill-opacity="0.9"/><circle cx="799" cy="176" r="1" fill="#fff" fill-opacity="0.4"/><circle cx="1037" cy="85" r="1" fill="#fff" fill-opacity="0.9"/><circle cx="1189" cy="143" r="2" fill="#fff" fill-opacity="0.9"/><circle cx="1196" cy="144" r="1.5" fill="#fff" fill-opacity="0.9"/><circle cx="460" cy="58" r="1" fill="#fff" fill-opacity="0.9"/><circle cx="1059" cy="145" r="1" fill="#fff" fill-opacity="0.4"/><circle cx="1042" cy="79" r="1" fill="#fff" fill-opacity="0.9"/><circle cx="592" cy="111" r="1" fill="#fff" fill-opacity="0.6"/><circle cx="1136" cy="185" r="1" fill="#fff" fill-opacity="0.9"/><circle cx="367" cy="168" r="1" fill="#fff" fill-opacity="0.9"/><circle cx="47" cy="50" r="1" fill="#fff" fill-opacity="0.4"/><circle cx="668" cy="272" r="2" fill="#fff" fill-opacity="0.6"/><circle cx="1101" cy="170" r="1.5" fill="#fff" fill-opacity="0.6"/><circle cx="800" cy="178" r="1" fill="#fff" fill-opacity="0.9"/><circle cx="619" cy="146" r="1" fill="#fff" fill-opacity="0.6"/><circle cx="185" cy="271" r="1.5" fill="#fff" fill-opacity="0.6"/><circle cx="794" cy="282" r="1" fill="#fff" fill-opacity="0.9"/><circle cx="199" cy="155" r="2" fill="#fff" fill-opacity="0.9"/><circle cx="252" cy="273" r="1.5" fill="#fff" fill-opacity="0.9"/><circle cx="120" cy="165" r="1" fill="#fff" fill-opacity="0.9"/><circle cx="126" cy="127" r="2" fill="#fff" fill-opacity="0.4"/><circle cx="790" cy="77" r="1" fill="#fff" fill-opacity="0.9"/><circle cx="674" cy="232" r="2" fill="#fff" fill-opacity="0.4"/><circle cx="975" cy="209" r="1" fill="#fff" fill-opacity="0.9"/><circle cx="311" cy="202" r="1.5" fill="#fff" fill-opacity="0.9"/><circle cx="496" cy="16" r="2" fill="#fff" fill-opacity="0.6"/><circle cx="1056" cy="143" r="1" fill="#fff" fill-opacity="0.6"/><circle cx="580" cy="11" r="2" fill="#fff" fill-opacity="0.4"/><circle cx="254" cy="30" r="1.5" fill="#fff" fill-opacity="0.9"/>
<circle cx="630.0" cy="362" r="200" fill="url(#sun)" mask="url(#sm)" opacity="0.92"/>
<rect y="372" width="1260" height="168" fill="#0a0318"/>
<line x1="0" y1="374" x2="1260" y2="374" stroke="#ff2fd0" stroke-opacity="0.35" stroke-width="2"/><line x1="0" y1="380" x2="1260" y2="380" stroke="#ff2fd0" stroke-opacity="0.35" stroke-width="2"/><line x1="0" y1="390" x2="1260" y2="390" stroke="#ff2fd0" stroke-opacity="0.35" stroke-width="2"/><line x1="0" y1="405" x2="1260" y2="405" stroke="#ff2fd0" stroke-opacity="0.35" stroke-width="2"/><line x1="0" y1="423" x2="1260" y2="423" stroke="#ff2fd0" stroke-opacity="0.35" stroke-width="2"/><line x1="0" y1="446" x2="1260" y2="446" stroke="#ff2fd0" stroke-opacity="0.35" stroke-width="2"/><line x1="0" y1="473" x2="1260" y2="473" stroke="#ff2fd0" stroke-opacity="0.35" stroke-width="2"/><line x1="0" y1="504" x2="1260" y2="504" stroke="#ff2fd0" stroke-opacity="0.35" stroke-width="2"/><line x1="0" y1="540" x2="1260" y2="540" stroke="#ff2fd0" stroke-opacity="0.35" stroke-width="2"/><line x1="630.0" y1="372" x2="-870.0" y2="540" stroke="#ff2fd0" stroke-opacity="0.3" stroke-width="2"/><line x1="630.0" y1="372" x2="-720.0" y2="540" stroke="#ff2fd0" stroke-opacity="0.3" stroke-width="2"/><line x1="630.0" y1="372" x2="-570.0" y2="540" stroke="#ff2fd0" stroke-opacity="0.3" stroke-width="2"/><line x1="630.0" y1="372" x2="-420.0" y2="540" stroke="#ff2fd0" stroke-opacity="0.3" stroke-width="2"/><line x1="630.0" y1="372" x2="-270.0" y2="540" stroke="#ff2fd0" stroke-opacity="0.3" stroke-width="2"/><line x1="630.0" y1="372" x2="-120.0" y2="540" stroke="#ff2fd0" stroke-opacity="0.3" stroke-width="2"/><line x1="630.0" y1="372" x2="30.0" y2="540" stroke="#ff2fd0" stroke-opacity="0.3" stroke-width="2"/><line x1="630.0" y1="372" x2="180.0" y2="540" stroke="#ff2fd0" stroke-opacity="0.3" stroke-width="2"/><line x1="630.0" y1="372" x2="330.0" y2="540" stroke="#ff2fd0" stroke-opacity="0.3" stroke-width="2"/><line x1="630.0" y1="372" x2="480.0" y2="540" stroke="#ff2fd0" stroke-opacity="0.3" stroke-width="2"/><line x1="630.0" y1="372" x2="630.0" y2="540" stroke="#ff2fd0" stroke-opacity="0.3" stroke-width="2"/><line x1="630.0" y1="372" x2="780.0" y2="540" stroke="#ff2fd0" stroke-opacity="0.3" stroke-width="2"/><line x1="630.0" y1="372" x2="930.0" y2="540" stroke="#ff2fd0" stroke-opacity="0.3" stroke-width="2"/><line x1="630.0" y1="372" x2="1080.0" y2="540" stroke="#ff2fd0" stroke-opacity="0.3" stroke-width="2"/><line x1="630.0" y1="372" x2="1230.0" y2="540" stroke="#ff2fd0" stroke-opacity="0.3" stroke-width="2"/><line x1="630.0" y1="372" x2="1380.0" y2="540" stroke="#ff2fd0" stroke-opacity="0.3" stroke-width="2"/><line x1="630.0" y1="372" x2="1530.0" y2="540" stroke="#ff2fd0" stroke-opacity="0.3" stroke-width="2"/><line x1="630.0" y1="372" x2="1680.0" y2="540" stroke="#ff2fd0" stroke-opacity="0.3" stroke-width="2"/><line x1="630.0" y1="372" x2="1830.0" y2="540" stroke="#ff2fd0" stroke-opacity="0.3" stroke-width="2"/><line x1="630.0" y1="372" x2="1980.0" y2="540" stroke="#ff2fd0" stroke-opacity="0.3" stroke-width="2"/><line x1="630.0" y1="372" x2="2130.0" y2="540" stroke="#ff2fd0" stroke-opacity="0.3" stroke-width="2"/>
<ellipse cx="630.0" cy="442" rx="300" ry="20" fill="#000" opacity="0.45"/>
<g transform="translate(240 66) scale(1.3)"><use href="#fg" filter="url(#gl)" opacity="0.85"/><use href="#fg"/></g>
</svg>