<svg xmlns="http://www.w3.org/2000/svg" viewBox="0 0 1260 540" preserveAspectRatio="xMidYMid slice" role="img">
<defs>
<linearGradient id="bg" x1="0" y1="0" x2="0" y2="1"><stop offset="0" stop-color="#0b0220"/><stop offset="1" stop-color="#42106b"/></linearGradient>
<linearGradient id="sun" x1="0" y1="0" x2="0" y2="1"><stop offset="0" stop-color="#ffd166"/><stop offset="1" stop-color="#ff2fd0"/></linearGradient>
<linearGradient id="sg" gradientUnits="userSpaceOnUse" x1="0" y1="0" x2="600" y2="300"><stop offset="0" stop-color="#00e5ff"/><stop offset="1" stop-color="#ff2fd0"/></linearGradient>
<mask id="sm"><rect width="1260" height="540" fill="#fff"/><rect x="0" y="263.6" width="1260" height="4.5" fill="#000"/><rect x="0" y="278.4" width="1260" height="6.0" fill="#000"/><rect x="0" y="296.4" width="1260" height="7.5" fill="#000"/><rect x="0" y="317.6" width="1260" height="9.0" fill="#000"/><rect x="0" y="342.0" width="1260" height="10.5" fill="#000"/><rect x="0" y="369.6" width="1260" height="12.0" fill="#000"/><rect x="0" y="400.4" width="1260" height="13.5" fill="#000"/><rect x="0" y="434.4" width="1260" height="15.0" fill="#000"/></mask>
<filter id="gl" x="-20%" y="-30%" width="140%" height="160%"><feGaussianBlur stdDeviation="9"/></filter>
<g id="fg" fill="#12062a" fill-opacity="0.93" stroke="url(#sg)" stroke-width="4" stroke-linejoin="round" stroke-linecap="round"><circle cx="300" cy="150" r="66" /><rect x="358" y="112" width="150" height="32" rx="6" /><circle cx="340.0" cy="150.0" r="11" fill="none" stroke-width="2" stroke-opacity="0.7"/><circle cx="320.0" cy="184.64101615137753" r="11" fill="none" stroke-width="2" stroke-opacity="0.7"/><circle cx="280.0" cy="184.64101615137756" r="11" fill="none" stroke-width="2" stroke-opacity="0.7"/><circle cx="260.0" cy="150.0" r="11" fill="none" stroke-width="2" stroke-opacity="0.7"/><circle cx="280.0" cy="115.35898384862246" r="11" fill="none" stroke-width="2" stroke-opacity="0.7"/><circle cx="320.0" cy="115.35898384862246" r="11" fill="none" stroke-width="2" stroke-opacity="0.7"/><rect x="380" y="150" width="24" height="62" rx="8" /><polygon points="240,196 290,208 270,262 226,254" /><path d="M236 120 L110 120 L110 164 L236 164" fill="none"/><rect x="500" y="100" width="12" height="14" rx="2" /><rect x="300" y="66" width="90" height="10" rx="3" /></g>
</defs>
<rect width="1260" height="540" fill="url(#bg)"/>
<circle cx="847" cy="133" r="2" fill="#fff" fill-opacity="0.4"/><circle cx="66" cy="11" r="2" fill="#fff" fill-opacity="0.4"/><circle cx="500" cy="89" r="1.5" fill="#fff" fill-opacity="0.6"/><circle cx="675" cy="183" r="1" fill="#fff" fill-opacity="0.4"/><circle cx="213" cy="28" r="1" fill="#fff" fill-opacity="0.9"/><circle cx="820" cy="36" r="1.5" fill="#fff" fill-opacity="0.9"/><circle cx="753" cy="218" r="2" fill="#fff" fill-opacity="0.6"/><circle cx="524" cy="124" r="2" fill="#fff" fill-opacity="0.6"/><circle cx="984" cy="84" r="1.5" fill="#fff" fill-opacity="0.6"/><circle cx="20" cy="43" r="1" fill="#fff" fill-opacity="0.9"/><circle cx="93" cy="277" r="1" fill="#fff" fill-opacity="0.6"/><circle cx="713" cy="121" r="2" fill="#fff" fill-opacity="0.6"/><circle cx="1054" cy="68" r="1.5" fill="#fff" fill-opacity="0.4"/><circle cx="954" cy="55" r="1" fill="#fff" fill-opacity="0.6"/><circle cx="952" cy="55" r="1.5" fill="#fff" fill-opacity="0.6"/><circle cx="751" cy="94" r="1" fill="#fff" fill-opacity="0.4"/><circle cx="739" cy="170" r="1" fill="#fff" fill-opacity="0.9"/><circle cx="114" cy="125" r="1" fill="#fff" fill-opacity="0.4"/><circle cx="361" cy="41" r="1.5" fill="#fff" fill-opacity="0.9"/><circle cx="558" cy="194" r="2" fill="#fff" fill-opacity="0.9"/><circle cx="685" cy="281" r="2" fill="#fff" fill-opacity="0.6"/><circle cx="1075" cy="274" r="1" fill="#fff" fill-opacity="0.6"/><circle cx="357" cy="148" r="2" fill="#fff" fill-opacity="0.4"/><circle cx="381" cy="207" r="1" fill="#fff" fill-opacity="0.9"/><circle cx="873" cy="214" r="1" fill="#fff" fill-opacity="0.4"/><circle cx="1118" cy="239" r="1.5" fill="#fff" fill-opacity="0.4"/><circle cx="943" cy="198" r="1" fill="#fff" fill-opacity="0.6"/><circle cx="134" cy="278" r="1" fill="#fff" fill-opacity="0.4"/><circle cx="868" cy="85" r="1" fill="#fff" fill-opacity="0.6"/><circle cx="125" cy="233" r="1" fill="#fff" fill-opacity="0.4"/><circle cx="507" cy="193" r="2" fill="#fff" fill-opacity="0.4"/><circle cx="972" cy="245" r="1.5" fill="#fff" fill-opacity="0.9"/><circle cx="140" cy="197" r="2" fill="#fff" fill-opacity="0.4"/><circle cx="753" cy="196" r="1.5" fill="#fff" fill-opacity="0.6"/><circle cx="208" cy="154" r="1.5" fill="#fff" fill-opacity="0.9"/><circle cx="536" cy="240" r="2" fill="#fff" fill-opacity="0.4"/><circle cx="1108" cy="20" r="1.5" fill="#fff" fill-opacity="0.9"/><circle cx="644" cy="272" r="2" fill="#fff" fill-opacity="0.9"/><circle cx="865" cy="128" r="2" fill="#fff" fill-opacity="0.6"/><circle cx="618" cy="158" r="1.5" fill="#fff" fill-opacity="0.4"/><circle cx="1248" cy="250" r="1" fill="#fff" fill-opacity="0.6"/><circle cx="775" cy="73" r="2" fill="#fff" fill-opacity="0.9"/><circle cx="430" cy="261" r="1.5" fill="#fff" fill-opacity="0.6"/><circle cx="444" cy="275" r="1" fill="#fff" fill-opacity="0.4"/><circle cx="670" cy="190" r="2" fill="#fff" fill-opacity="0.6"/><circle cx="908" cy="80" r="2" fill="#fff" fill-opacity="0.6"/>
<circle cx="630.0" cy="362" r="200" fill="url(#sun)" mask="url(#sm)" opacity="0.92"/>
<rect y="372" width="1260" height="168" fill="#0a0318"/>
<line x1="0" y1="374" x2="1260" y2="374" stroke="#ff2fd0" stroke-opacity="0.35" stroke-width="2"/><line x1="0" y1="380" x2="1260" y2="380" stroke="#ff2fd0" stroke-opacity="0.35" stroke-width="2"/><line x1="0" y1="390" x2="1260" y2="390" stroke="#ff2fd0" stroke-opacity="0.35" stroke-width="2"/><line x1="0" y1="405" x2="1260" y2="405" stroke="#ff2fd0" stroke-opacity="0.35" stroke-width="2"/><line x1="0" y1="423" x2="1260" y2="423" stroke="#ff2fd0" stroke-opacity="0.35" stroke-width="2"/><line x1="0" y1="446" x2="1260" y2="446" stroke="#ff2fd0" stroke-opacity="0.35" stroke-width="2"/><line x1="0" y1="473" x2="1260" y2="473" stroke="#ff2fd0" stroke-opacity="0.35" stroke-width="2"/><line x1="0" y1="504" x2="1260" y2="504" stroke="#ff2fd0" stroke-opacity="0.35" stroke-width="2"/><line x1="0" y1="540" x2="1260" y2="540" stroke="#ff2fd0" stroke-opacity="0.35" stroke-width="2"/><line x1="630.0" y1="372" x2="-870.0" y2="540" stroke="#ff2fd0" stroke-opacity="0.3" stroke-width="2"/><line x1="630.0" y1="372" x2="-720.0" y2="540" stroke="#ff2fd0" stroke-opacity="0.3" stroke-width="2"/><line x1="630.0" y1="372" x2="-570.0" y2="540" stroke="#ff2fd0" stroke-opacity="0.3" stroke-width="2"/><line x1="630.0" y1="372" x2="-420.0" y2="540" stroke="#ff2fd0" stroke-opacity="0.3" stroke-width="2"/><line x1="630.0" y1="372" x2="-270.0" y2="540" stroke="#ff2fd0" stroke-opacity="0.3" stroke-width="2"/><line x1="630.0" y1="372" x2="-120.0" y2="540" stroke="#ff2fd0" stroke-opacity="0.3" stroke-width="2"/><line x1="630.0" y1="372" x2="30.0" y2="540" stroke="#ff2fd0" stroke-opacity="0.3" stroke-width="2"/><line x1="630.0" y1="372" x2="180.0" y2="540" stroke="#ff2fd0" stroke-opacity="0.3" stroke-width="2"/><line x1="630.0" y1="372" x2="330.0" y2="540" stroke="#ff2fd0" stroke-opacity="0.3" stroke-width="2"/><line x1="630.0" y1="372" x2="480.0" y2="540" stroke="#ff2fd0" stroke-opacity="0.3" stroke-width="2"/><line x1="630.0" y1="372" x2="630.0" y2="540" stroke="#ff2fd0" stroke-opacity="0.3" stroke-width="2"/><line x1="630.0" y1="372" x2="780.0" y2="540" stroke="#ff2fd0" stroke-opacity="0.3" stroke-width="2"/><line x1="630.0" y1="372" x2="930.0" y2="540" stroke="#ff2fd0" stroke-opacity="0.3" stroke-width="2"/><line x1="630.0" y1="372" x2="1080.0" y2="540" stroke="#ff2fd0" stroke-opacity="0.3" stroke-width="2"/><line x1="630.0" y1="372" x2="1230.0" y2="540" stroke="#ff2fd0" stroke-opacity="0.3" stroke-width="2"/><line x1="630.0" y1="372" x2="1380.0" y2="540" stroke="#ff2fd0" stroke-opacity="0.3" stroke-width="2"/><line x1="630.0" y1="372" x2="1530.0" y2="540" stroke="#ff2fd0" stroke-opacity="0.3" stroke-width="2"/><line x1="630.0" y1="372" x2="1680.0" y2="540" stroke="#ff2fd0" stroke-opacity="0.3" stroke-width="2"/><line x1="630.0" y1="372" x2="1830.0" y2="540" stroke="#ff2fd0" stroke-opacity="0.3" stroke-width="2"/><line x1="630.0" y1="372" x2="1980.0" y2="540" stroke="#ff2fd0" stroke-opacity="0.3" stroke-width="2"/><line x1="630.0" y1="372" x2="2130.0" y2="540" stroke="#ff2fd0" stroke-opacity="0.3" stroke-width="2"/>
<ellipse cx="630.0" cy="442" rx="300" ry="20" fill="#000" opacity="0.45"/>
<g transform="translate(240 66) scale(1.3)"><use href="#fg" filter="url(#gl)" opacity="0.85"/><use href="#fg"/></g>
</svg>