<svg xmlns="http://www.w3.org/2000/svg" viewBox="0 0 1260 540" preserveAspectRatio="xMidYMid slice" role="img">
<defs>
<linearGradient id="bg" x1="0" y1="0" x2="0" y2="1"><stop offset="0" stop-color="#0b0220"/><stop offset="1" stop-color="#42106b"/></linearGradient>
<linearGradient id="sun" x1="0" y1="0" x2="0" y2="1"><stop offset="0" stop-color="#ffd166"/><stop offset="1" stop-color="#ff2fd0"/></linearGradient>
<linearGradient id="sg" gradientUnits="userSpaceOnUse" x1="0" y1="0" x2="600" y2="300"><stop offset="0" stop-color="#00e5ff"/><stop offset="1" stop-color="#ff2fd0"/></linearGradient>
<mask id="sm"><rect width="1260" height="540" fill="#fff"/><rect x="0" y="263.6" width="1260" height="4.5" fill="#000"/><rect x="0" y="278.4" width="1260" height="6.0" fill="#000"/><rect x="0" y="296.4" width="1260" height="7.5" fill="#000"/><rect x="0" y="317.6" width="1260" height="9.0" fill="#000"/><rect x="0" y="342.0" width="1260" height="10.5" fill="#000"/><rect x="0" y="369.6" width="1260" height="12.0" fill="#000"/><rect x="0" y="400.4" width="1260" height="13.5" fill="#000"/><rect x="0" y="434.4" width="1260" height="15.0" fill="#000"/></mask>
<filter id="gl" x="-20%" y="-30%" width="140%" height="160%"><feGaussianBlur stdDeviation="9"/></filter>
<g id="fg" fill="#12062a" fill-opacity="0.93" stroke="url(#sg)" stroke-width="4" stroke-linejoin="round" stroke-linecap="round"><ellipse cx="300" cy="170" rx="76" ry="92" /><rect x="278" y="62" width="46" height="28" rx="6" /><path d="M324 72 L398 94 Q412 100 404 114 L388 114 Q380 102 324 88 Z" /><circle cx="268" cy="66" r="18" fill="none"/><path d="M232 134 Q300 154 368 134 M228 172 Q300 192 372 172 M232 210 Q300 230 368 210 M300 90 L300 258 M262 104 Q252 170 266 246 M338 104 Q348 170 334 246" fill="none" stroke-width="2" stroke-opacity="0.7"/></g>
</defs>
<rect width="1260" height="540" fill="url(#bg)"/>
<circle cx="877" cy="217" r="1" fill="#fff" fill-opacity="0.9"/><circle cx="554" cy="77" r="1" fill="#fff" fill-opacity="0.6"/><circle cx="304" cy="55" r="1" fill="#fff" fill-opacity="0.4"/><circle cx="901" cy="237" r="1.5" fill="#fff" fill-opacity="0.4"/><circle cx="185" cy="227" r="1.5" fill="#fff" fill-opacity="0.9"/><circle cx="1249" cy="64" r="1" fill="#fff" fill-opacity="0.4"/><circle cx="920" cy="248" r="1.5" fill="#fff" fill-opacity="0.6"/><circle cx="545" cy="190" r="1" fill="#fff" fill-opacity="0.9"/><circle cx="1131" cy="152" r="1" fill="#fff" fill-opacity="0.9"/><circle cx="974" cy="260" r="1" fill="#fff" fill-opacity="0.6"/><circle cx="1171" cy="140" r="1" fill="#fff" fill-opacity="0.9"/><circle cx="920" cy="276" r="1" fill="#fff" fill-opacity="0.6"/><circle cx="867" cy="195" r="1" fill="#fff" fill-opacity="0.6"/><circle cx="65" cy="253" r="2" fill="#fff" fill-opacity="0.4"/><circle cx="113" cy="160" r="1.5" fill="#fff" fill-opacity="0.9"/><circle cx="811" cy="76" r="2" fill="#fff" fill-opacity="0.9"/><circle cx="874" cy="196" r="1.5" fill="#fff" fill-opacity="0.9"/><circle cx="690" cy="198" r="1" fill="#fff" fill-opacity="0.6"/><circle cx="285" cy="162" r="1" fill="#fff" fill-opacity="0.9"/><circle cx="1109" cy="277" r="2" fill="#fff" fill-opacity="0.4"/><circle cx="1231" cy="106" r="1" fill="#fff" fill-opacity="0.9"/><circle cx="1071" cy="24" r="1" fill="#fff" fill-opacity="0.4"/><circle cx="479" cy="44" r="2" fill="#fff" fill-opacity="0.6"/><circle cx="1000" cy="107" r="1" fill="#fff" fill-opacity="0.9"/><circle cx="842" cy="46" r="2" fill="#fff" fill-opacity="0.6"/><circle cx="907" cy="261" r="2" fill="#fff" fill-opacity="0.4"/><circle cx="1214" cy="63" r="1" fill="#fff" fill-opacity="0.9"/><circle cx="404" cy="165" r="1" fill="#fff" fill-opacity="0.4"/><circle cx="946" cy="217" r="1" fill="#fff" fill-opacity="0.9"/><circle cx="740" cy="102" r="2" fill="#fff" fill-opacity="0.6"/><circle cx="98" cy="251" r="1" fill="#fff" fill-opacity="0.6"/><circle cx="159" cy="10" r="1" fill="#fff" fill-opacity="0.6"/><circle cx="208" cy="172" r="1.5" fill="#fff" fill-opacity="0.9"/><circle cx="791" cy="122" r="2" fill="#fff" fill-opacity="0.4"/><circle cx="902" cy="94" r="1" fill="#fff" fill-opacity="0.9"/><circle cx="705" cy="249" r="1.5" fill="#fff" fill-opacity="0.9"/><circle cx="653" cy="63" r="1.5" fill="#fff" fill-opacity="0.9"/><circle cx="388" cy="259" r="1" fill="#fff" fill-opacity="0.6"/><circle cx="711" cy="250" r="2" fill="#fff" fill-opacity="0.9"/><circle cx="506" cy="124" r="2" fill="#fff" fill-opacity="0.4"/><circle cx="538" cy="176" r="2" fill="#fff" fill-opacity="0.6"/><circle cx="283" cy="105" r="1" fill="#fff" fill-opacity="0.4"/><circle cx="240" cy="189" r="1" fill="#fff" fill-opacity="0.6"/><circle cx="539" cy="249" r="1.5" fill="#fff" fill-opacity="0.6"/><circle cx="1184" cy="20" r="1" fill="#fff" fill-opacity="0.4"/><circle cx="369" cy="178" r="1.5" fill="#fff" fill-opacity="0.4"/>
<circle cx="630.0" cy="362" r="200" fill="url(#sun)" mask="url(#sm)" opacity="0.92"/>
<rect y="372" width="1260" height="168" fill="#0a0318"/>
<line x1="0" y1="374" x2="1260" y2="374" stroke="#ff2fd0" stroke-opacity="0.35" stroke-width="2"/><line x1="0" y1="380" x2="1260" y2="380" stroke="#ff2fd0" stroke-opacity="0.35" stroke-width="2"/><line x1="0" y1="390" x2="1260" y2="390" stroke="#ff2fd0" stroke-opacity="0.35" stroke-width="2"/><line x1="0" y1="405" x2="1260" y2="405" stroke="#ff2fd0" stroke-opacity="0.35" stroke-width="2"/><line x1="0" y1="423" x2="1260" y2="423" stroke="#ff2fd0" stroke-opacity="0.35" stroke-width="2"/><line x1="0" y1="446" x2="1260" y2="446" stroke="#ff2fd0" stroke-opacity="0.35" stroke-width="2"/><line x1="0" y1="473" x2="1260" y2="473" stroke="#ff2fd0" stroke-opacity="0.35" stroke-width="2"/><line x1="0" y1="504" x2="1260" y2="504" stroke="#ff2fd0" stroke-opacity="0.35" stroke-width="2"/><line x1="0" y1="540" x2="1260" y2="540" stroke="#ff2fd0" stroke-opacity="0.35" stroke-width="2"/><line x1="630.0" y1="372" x2="-870.0" y2="540" stroke="#ff2fd0" stroke-opacity="0.3" stroke-width="2"/><line x1="630.0" y1="372" x2="-720.0" y2="540" stroke="#ff2fd0" stroke-opacity="0.3" stroke-width="2"/><line x1="630.0" y1="372" x2="-570.0" y2="540" stroke="#ff2fd0" stroke-opacity="0.3" stroke-width="2"/><line x1="630.0" y1="372" x2="-420.0" y2="540" stroke="#ff2fd0" stroke-opacity="0.3" stroke-width="2"/><line x1="630.0" y1="372" x2="-270.0" y2="540" stroke="#ff2fd0" stroke-opacity="0.3" stroke-width="2"/><line x1="630.0" y1="372" x2="-120.0" y2="540" stroke="#ff2fd0" stroke-opacity="0.3" stroke-width="2"/><line x1="630.0" y1="372" x2="30.0" y2="540" stroke="#ff2fd0" stroke-opacity="0.3" stroke-width="2"/><line x1="630.0" y1="372" x2="180.0" y2="540" stroke="#ff2fd0" stroke-opacity="0.3" stroke-width="2"/><line x1="630.0" y1="372" x2="330.0" y2="540" stroke="#ff2fd0" stroke-opacity="0.3" stroke-width="2"/><line x1="630.0" y1="372" x2="480.0" y2="540" stroke="#ff2fd0" stroke-opacity="0.3" stroke-width="2"/><line x1="630.0" y1="372" x2="630.0" y2="540" stroke="#ff2fd0" stroke-opacity="0.3" stroke-width="2"/><line x1="630.0" y1="372" x2="780.0" y2="540" stroke="#ff2fd0" stroke-opacity="0.3" stroke-width="2"/><line x1="630.0" y1="372" x2="930.0" y2="540" stroke="#ff2fd0" stroke-opacity="0.3" stroke-width="2"/><line x1="630.0" y1="372" x2="1080.0" y2="540" stroke="#ff2fd0" stroke-opacity="0.3" stroke-width="2"/><line x1="630.0" y1="372" x2="1230.0" y2="540" stroke="#ff2fd0" stroke-opacity="0.3" stroke-width="2"/><line x1="630.0" y1="372" x2="1380.0" y2="540" stroke="#ff2fd0" stroke-opacity="0.3" stroke-width="2"/><line x1="630.0" y1="372" x2="1530.0" y2="540" stroke="#ff2fd0" stroke-opacity="0.3" stroke-width="2"/><line x1="630.0" y1="372" x2="1680.0" y2="540" stroke="#ff2fd0" stroke-opacity="0.3" stroke-width="2"/><line x1="630.0" y1="372" x2="1830.0" y2="540" stroke="#ff2fd0" stroke-opacity="0.3" stroke-width="2"/><line x1="630.0" y1="372" x2="1980.0" y2="540" stroke="#ff2fd0" stroke-opacity="0.3" stroke-width="2"/><line x1="630.0" y1="372" x2="2130.0" y2="540" stroke="#ff2fd0" stroke-opacity="0.3" stroke-width="2"/>
<ellipse cx="630.0" cy="442" rx="300" ry="20" fill="#000" opacity="0.45"/>
<g transform="translate(240 66) scale(1.3)"><use href="#fg" filter="url(#gl)" opacity="0.85"/><use href="#fg"/></g>
</svg>