<svg xmlns="http://www.w3.org/2000/svg" viewBox="0 0 1260 540" preserveAspectRatio="xMidYMid slice" role="img">
<defs>
<linearGradient id="bg" x1="0" y1="0" x2="0" y2="1"><stop offset="0" stop-color="#07122c"/><stop offset="1" stop-color="#3a1260"/></linearGradient>
<linearGradient id="sun" x1="0" y1="0" x2="0" y2="1"><stop offset="0" stop-color="#ffd166"/><stop offset="1" stop-color="#ff7a30"/></linearGradient>
<linearGradient id="sg" gradientUnits="userSpaceOnUse" x1="0" y1="0" x2="600" y2="300"><stop offset="0" stop-color="#ffd166"/><stop offset="1" stop-color="#00e5ff"/></linearGradient>
<mask id="sm"><rect width="1260" height="540" fill="#fff"/><rect x="0" y="263.6" width="1260" height="4.5" fill="#000"/><rect x="0" y="278.4" width="1260" height="6.0" fill="#000"/><rect x="0" y="296.4" width="1260" height="7.5" fill="#000"/><rect x="0" y="317.6" width="1260" height="9.0" fill="#000"/><rect x="0" y="342.0" width="1260" height="10.5" fill="#000"/><rect x="0" y="369.6" width="1260" height="12.0" fill="#000"/><rect x="0" y="400.4" width="1260" height="13.5" fill="#000"/><rect x="0" y="434.4" width="1260" height="15.0" fill="#000"/></mask>
<filter id="gl" x="-20%" y="-30%" width="140%" height="160%"><feGaussianBlur stdDeviation="9"/></filter>
<g id="fg" fill="#12062a" fill-opacity="0.93" stroke="url(#sg)" stroke-width="4" stroke-linejoin="round" stroke-linecap="round"><path d="M150 276 L150 152 Q150 124 176 104 L176 42 L218 42 L218 104 Q244 124 244 152 L244 276 Z" /><rect x="150" y="186" width="94" height="56" rx="4" fill="none" stroke-width="2" stroke-opacity="0.7"/><rect x="172" y="34" width="50" height="16" rx="4" /><path d="M356 84 Q356 190 420 204 Q484 190 484 84 Z" /><rect x="414" y="204" width="12" height="56" rx="3" /><ellipse cx="420" cy="270" rx="48" ry="10" /><path d="M362 138 Q420 160 478 138 Q474 192 420 202 Q366 192 362 138 Z" fill="#ff2fd0" fill-opacity="0.85" stroke="#ff2fd0"/></g>
</defs>
<rect width="1260" height="540" fill="url(#bg)"/>
<circle cx="1048" cy="234" r="1" fill="#fff" fill-opacity="0.4"/><circle cx="713" cy="255" r="1" fill="#fff" fill-opacity="0.6"/><circle cx="232" cy="255" r="1" fill="#fff" fill-opacity="0.4"/><circle cx="391" cy="188" r="1" fill="#fff" fill-opacity="0.9"/><circle cx="878" cy="78" r="1" fill="#fff" fill-opacity="0.9"/><circle cx="652" cy="171" r="2" fill="#fff" fill-opacity="0.9"/><circle cx="692" cy="226" r="2" fill="#fff" fill-opacity="0.4"/><circle cx="622" cy="13" r="1" fill="#fff" fill-opacity="0.6"/><circle cx="648" cy="48" r="1" fill="#fff" fill-opacity="0.4"/><circle cx="965" cy="241" r="1" fill="#fff" fill-opacity="0.9"/><circle cx="299" cy="217" r="1" fill="#fff" fill-opacity="0.4"/><circle cx="201" cy="104" r="1.5" fill="#fff" fill-opacity="0.9"/><circle cx="311" cy="12" r="1" fill="#fff" fill-opacity="0.9"/><circle cx="743" cy="189" r="1" fill="#fff" fill-opacity="0.4"/><circle cx="134" cy="70" r="1" fill="#fff" fill-opacity="0.6"/><circle cx="736" cy="177" r="1.5" fill="#fff" fill-opacity="0.6"/><circle cx="1014" cy="106" r="1.5" fill="#fff" fill-opacity="0.4"/><circle cx="272" cy="232" r="1" fill="#fff" fill-opacity="0.9"/><circle cx="437" cy="123" r="1" fill="#fff" fill-opacity="0.6"/><circle cx="577" cy="184" r="1.5" fill="#fff" fill-opacity="0.6"/><circle cx="44" cy="204" r="1.5" fill="#fff" fill-opacity="0.6"/><circle cx="354" cy="152" r="1.5" fill="#fff" fill-opacity="0.6"/><circle cx="658" cy="66" r="1.5" fill="#fff" fill-opacity="0.9"/><circle cx="692" cy="270" r="1" fill="#fff" fill-opacity="0.9"/><circle cx="262" cy="155" r="1.5" fill="#fff" fill-opacity="0.4"/><circle cx="106" cy="202" r="1.5" fill="#fff" fill-opacity="0.9"/><circle cx="192" cy="58" r="1" fill="#fff" fill-opacity="0.9"/><circle cx="1220" cy="159" r="1" fill="#fff" fill-opacity="0.6"/><circle cx="539" cy="90" r="2" fill="#fff" fill-opacity="0.6"/><circle cx="122" cy="195" r="1" fill="#fff" fill-opacity="0.4"/><circle cx="62" cy="103" r="2" fill="#fff" fill-opacity="0.4"/><circle cx="634" cy="153" r="1" fill="#fff" fill-opacity="0.6"/><circle cx="1136" cy="136" r="1" fill="#fff" fill-opacity="0.6"/><circle cx="912" cy="189" r="1" fill="#fff" fill-opacity="0.9"/><circle cx="1031" cy="202" r="1" fill="#fff" fill-opacity="0.9"/><circle cx="951" cy="20" r="1" fill="#fff" fill-opacity="0.6"/><circle cx="978" cy="49" r="1" fill="#fff" fill-opacity="0.4"/><circle cx="24" cy="29" r="2" fill="#fff" fill-opacity="0.9"/><circle cx="99" cy="154" r="1.5" fill="#fff" fill-opacity="0.4"/><circle cx="1235" cy="43" r="1" fill="#fff" fill-opacity="0.4"/><circle cx="1146" cy="212" r="2" fill="#fff" fill-opacity="0.4"/><circle cx="721" cy="211" r="1" fill="#fff" fill-opacity="0.9"/><circle cx="1125" cy="271" r="1.5" fill="#fff" fill-opacity="0.6"/><circle cx="889" cy="226" r="1" fill="#fff" fill-opacity="0.4"/><circle cx="155" cy="243" r="1" fill="#fff" fill-opacity="0.6"/><circle cx="984" cy="248" r="1" fill="#fff" fill-opacity="0.4"/>
<circle cx="630.0" cy="362" r="200" fill="url(#sun)" mask="url(#sm)" opacity="0.92"/>
<rect y="372" width="1260" height="168" fill="#0a0318"/>
<line x1="0" y1="374" x2="1260" y2="374" stroke="#00e5ff" stroke-opacity="0.35" stroke-width="2"/><line x1="0" y1="380" x2="1260" y2="380" stroke="#00e5ff" stroke-opacity="0.35" stroke-width="2"/><line x1="0" y1="390" x2="1260" y2="390" stroke="#00e5ff" stroke-opacity="0.35" stroke-width="2"/><line x1="0" y1="405" x2="1260" y2="405" stroke="#00e5ff" stroke-opacity="0.35" stroke-width="2"/><line x1="0" y1="423" x2="1260" y2="423" stroke="#00e5ff" stroke-opacity="0.35" stroke-width="2"/><line x1="0" y1="446" x2="1260" y2="446" stroke="#00e5ff" stroke-opacity="0.35" stroke-width="2"/><line x1="0" y1="473" x2="1260" y2="473" stroke="#00e5ff" stroke-opacity="0.35" stroke-width="2"/><line x1="0" y1="504" x2="1260" y2="504" stroke="#00e5ff" stroke-opacity="0.35" stroke-width="2"/><line x1="0" y1="540" x2="1260" y2="540" stroke="#00e5ff" stroke-opacity="0.35" stroke-width="2"/><line x1="630.0" y1="372" x2="-870.0" y2="540" stroke="#00e5ff" stroke-opacity="0.3" stroke-width="2"/><line x1="630.0" y1="372" x2="-720.0" y2="540" stroke="#00e5ff" stroke-opacity="0.3" stroke-width="2"/><line x1="630.0" y1="372" x2="-570.0" y2="540" stroke="#00e5ff" stroke-opacity="0.3" stroke-width="2"/><line x1="630.0" y1="372" x2="-420.0" y2="540" stroke="#00e5ff" stroke-opacity="0.3" stroke-width="2"/><line x1="630.0" y1="372" x2="-270.0" y2="540" stroke="#00e5ff" stroke-opacity="0.3" stroke-width="2"/><line x1="630.0" y1="372" x2="-120.0" y2="540" stroke="#00e5ff" stroke-opacity="0.3" stroke-width="2"/><line x1="630.0" y1="372" x2="30.0" y2="540" stroke="#00e5ff" stroke-opacity="0.3" stroke-width="2"/><line x1="630.0" y1="372" x2="180.0" y2="540" stroke="#00e5ff" stroke-opacity="0.3" stroke-width="2"/><line x1="630.0" y1="372" x2="330.0" y2="540" stroke="#00e5ff" stroke-opacity="0.3" stroke-width="2"/><line x1="630.0" y1="372" x2="480.0" y2="540" stroke="#00e5ff" stroke-opacity="0.3" stroke-width="2"/><line x1="630.0" y1="372" x2="630.0" y2="540" stroke="#00e5ff" stroke-opacity="0.3" stroke-width="2"/><line x1="630.0" y1="372" x2="780.0" y2="540" stroke="#00e5ff" stroke-opacity="0.3" stroke-width="2"/><line x1="630.0" y1="372" x2="930.0" y2="540" stroke="#00e5ff" stroke-opacity="0.3" stroke-width="2"/><line x1="630.0" y1="372" x2="1080.0" y2="540" stroke="#00e5ff" stroke-opacity="0.3" stroke-width="2"/><line x1="630.0" y1="372" x2="1230.0" y2="540" stroke="#00e5ff" stroke-opacity="0.3" stroke-width="2"/><line x1="630.0" y1="372" x2="1380.0" y2="540" stroke="#00e5ff" stroke-opacity="0.3" stroke-width="2"/><line x1="630.0" y1="372" x2="1530.0" y2="540" stroke="#00e5ff" stroke-opacity="0.3" stroke-width="2"/><line x1="630.0" y1="372" x2="1680.0" y2="540" stroke="#00e5ff" stroke-opacity="0.3" stroke-width="2"/><line x1="630.0" y1="372" x2="1830.0" y2="540" stroke="#00e5ff" stroke-opacity="0.3" stroke-width="2"/><line x1="630.0" y1="372" x2="1980.0" y2="540" stroke="#00e5ff" stroke-opacity="0.3" stroke-width="2"/><line x1="630.0" y1="372" x2="2130.0" y2="540" stroke="#00e5ff" stroke-opacity="0.3" stroke-width="2"/>
<ellipse cx="630.0" cy="442" rx="300" ry="20" fill="#000" opacity="0.45"/>
<g transform="translate(240 66) scale(1.3)"><use href="#fg" filter="url(#gl)" opacity="0.85"/><use href="#fg"/></g>
</svg>