<svg xmlns="http://www.w3.org/2000/svg" viewBox="0 0 1260 540" preserveAspectRatio="xMidYMid slice" role="img">
<defs>
<linearGradient id="bg" x1="0" y1="0" x2="0" y2="1"><stop offset="0" stop-color="#0b0220"/><stop offset="1" stop-color="#2c0f5c"/></linearGradient>
<linearGradient id="sun" x1="0" y1="0" x2="0" y2="1"><stop offset="0" stop-color="#ff2fd0"/><stop offset="1" stop-color="#7b2ff7"/></linearGradient>
<linearGradient id="sg" gradientUnits="userSpaceOnUse" x1="0" y1="0" x2="600" y2="300"><stop offset="0" stop-color="#ff2fd0"/><stop offset="1" stop-color="#00e5ff"/></linearGradient>
<mask id="sm"><rect width="1260" height="540" fill="#fff"/><rect x="0" y="263.6" width="1260" height="4.5" fill="#000"/><rect x="0" y="278.4" width="1260" height="6.0" fill="#000"/><rect x="0" y="296.4" width="1260" height="7.5" fill="#000"/><rect x="0" y="317.6" width="1260" height="9.0" fill="#000"/><rect x="0" y="342.0" width="1260" height="10.5" fill="#000"/><rect x="0" y="369.6" width="1260" height="12.0" fill="#000"/><rect x="0" y="400.4" width="1260" height="13.5" fill="#000"/><rect x="0" y="434.4" width="1260" height="15.0" fill="#000"/></mask>
<filter id="gl" x="-20%" y="-30%" width="140%" height="160%"><feGaussianBlur stdDeviation="9"/></filter>
<g id="fg" fill="#12062a" fill-opacity="0.93" stroke="url(#sg)" stroke-width="4" stroke-linejoin="round" stroke-linecap="round"><path d="M300 90 Q230 56 130 70 L130 250 Q230 236 300 270 Z" /><path d="M300 90 Q370 56 470 70 L470 250 Q370 236 300 270 Z" /><path d="M158 110 Q220 100 272 124 M158 148 Q220 138 272 162 M158 186 Q220 176 272 200 M328 124 Q380 100 442 110 M328 162 Q380 138 442 148" fill="none" stroke-width="2" stroke-opacity="0.7"/><path d="M300 90 L300 270" fill="none" stroke="#ffd166" stroke-width="4" stroke-linecap="round"/></g>
</defs>
<rect width="1260" height="540" fill="url(#bg)"/>
<circle cx="11" cy="149" r="1" fill="#fff" fill-opacity="0.4"/><circle cx="107" cy="93" r="1" fill="#fff" fill-opacity="0.6"/><circle cx="727" cy="276" r="1.5" fill="#fff" fill-opacity="0.6"/><circle cx="19" cy="145" r="1" fill="#fff" fill-opacity="0.4"/><circle cx="762" cy="39" r="1" fill="#fff" fill-opacity="0.6"/><circle cx="828" cy="81" r="1.5" fill="#fff" fill-opacity="0.4"/><circle cx="1171" cy="87" r="1" fill="#fff" fill-opacity="0.4"/><circle cx="503" cy="145" r="1" fill="#fff" fill-opacity="0.9"/><circle cx="685" cy="10" r="2" fill="#fff" fill-opacity="0.6"/><circle cx="351" cy="174" r="1.5" fill="#fff" fill-opacity="0.9"/><circle cx="1111" cy="131" r="1" fill="#fff" fill-opacity="0.9"/><circle cx="925" cy="245" r="2" fill="#fff" fill-opacity="0.9"/><circle cx="1050" cy="167" r="1" fill="#fff" fill-opacity="0.9"/><circle cx="921" cy="212" r="1" fill="#fff" fill-opacity="0.9"/><circle cx="347" cy="235" r="1" fill="#fff" fill-opacity="0.9"/><circle cx="800" cy="136" r="1" fill="#fff" fill-opacity="0.4"/><circle cx="438" cy="151" r="1" fill="#fff" fill-opacity="0.4"/><circle cx="768" cy="147" r="1.5" fill="#fff" fill-opacity="0.4"/><circle cx="1232" cy="243" r="1" fill="#fff" fill-opacity="0.4"/><circle cx="1091" cy="64" r="1" fill="#fff" fill-opacity="0.9"/><circle cx="773" cy="26" r="2" fill="#fff" fill-opacity="0.6"/><circle cx="811" cy="185" r="1" fill="#fff" fill-opacity="0.6"/><circle cx="1080" cy="212" r="1" fill="#fff" fill-opacity="0.9"/><circle cx="672" cy="228" r="2" fill="#fff" fill-opacity="0.9"/><circle cx="954" cy="43" r="1.5" fill="#fff" fill-opacity="0.6"/><circle cx="1005" cy="52" r="1.5" fill="#fff" fill-opacity="0.6"/><circle cx="37" cy="83" r="2" fill="#fff" fill-opacity="0.4"/><circle cx="440" cy="220" r="1" fill="#fff" fill-opacity="0.6"/><circle cx="734" cy="206" r="1" fill="#fff" fill-opacity="0.4"/><circle cx="624" cy="256" r="1" fill="#fff" fill-opacity="0.6"/><circle cx="997" cy="162" r="1" fill="#fff" fill-opacity="0.9"/><circle cx="1021" cy="263" r="1" fill="#fff" fill-opacity="0.6"/><circle cx="904" cy="45" r="1.5" fill="#fff" fill-opacity="0.6"/><circle cx="763" cy="23" r="1.5" fill="#fff" fill-opacity="0.6"/><circle cx="353" cy="90" r="1" fill="#fff" fill-opacity="0.6"/><circle cx="1160" cy="86" r="1" fill="#fff" fill-opacity="0.9"/><circle cx="178" cy="131" r="1" fill="#fff" fill-opacity="0.6"/><circle cx="262" cy="116" r="2" fill="#fff" fill-opacity="0.9"/><circle cx="623" cy="188" r="1" fill="#fff" fill-opacity="0.9"/><circle cx="475" cy="230" r="1" fill="#fff" fill-opacity="0.6"/><circle cx="583" cy="141" r="1.5" fill="#fff" fill-opacity="0.6"/><circle cx="1072" cy="12" r="2" fill="#fff" fill-opacity="0.6"/><circle cx="568" cy="41" r="2" fill="#fff" fill-opacity="0.9"/><circle cx="1098" cy="17" r="1" fill="#fff" fill-opacity="0.6"/><circle cx="1001" cy="54" r="2" fill="#fff" fill-opacity="0.9"/><circle cx="181" cy="207" r="2" fill="#fff" fill-opacity="0.9"/>
<circle cx="630.0" cy="362" r="200" fill="url(#sun)" mask="url(#sm)" opacity="0.92"/>
<rect y="372" width="1260" height="168" fill="#0a0318"/>
<line x1="0" y1="374" x2="1260" y2="374" stroke="#00e5ff" stroke-opacity="0.35" stroke-width="2"/><line x1="0" y1="380" x2="1260" y2="380" stroke="#00e5ff" stroke-opacity="0.35" stroke-width="2"/><line x1="0" y1="390" x2="1260" y2="390" stroke="#00e5ff" stroke-opacity="0.35" stroke-width="2"/><line x1="0" y1="405" x2="1260" y2="405" stroke="#00e5ff" stroke-opacity="0.35" stroke-width="2"/><line x1="0" y1="423" x2="1260" y2="423" stroke="#00e5ff" stroke-opacity="0.35" stroke-width="2"/><line x1="0" y1="446" x2="1260" y2="446" stroke="#00e5ff" stroke-opacity="0.35" stroke-width="2"/><line x1="0" y1="473" x2="1260" y2="473" stroke="#00e5ff" stroke-opacity="0.35" stroke-width="2"/><line x1="0" y1="504" x2="1260" y2="504" stroke="#00e5ff" stroke-opacity="0.35" stroke-width="2"/><line x1="0" y1="540" x2="1260" y2="540" stroke="#00e5ff" stroke-opacity="0.35" stroke-width="2"/><line x1="630.0" y1="372" x2="-870.0" y2="540" stroke="#00e5ff" stroke-opacity="0.3" stroke-width="2"/><line x1="630.0" y1="372" x2="-720.0" y2="540" stroke="#00e5ff" stroke-opacity="0.3" stroke-width="2"/><line x1="630.0" y1="372" x2="-570.0" y2="540" stroke="#00e5ff" stroke-opacity="0.3" stroke-width="2"/><line x1="630.0" y1="372" x2="-420.0" y2="540" stroke="#00e5ff" stroke-opacity="0.3" stroke-width="2"/><line x1="630.0" y1="372" x2="-270.0" y2="540" stroke="#00e5ff" stroke-opacity="0.3" stroke-width="2"/><line x1="630.0" y1="372" x2="-120.0" y2="540" stroke="#00e5ff" stroke-opacity="0.3" stroke-width="2"/><line x1="630.0" y1="372" x2="30.0" y2="540" stroke="#00e5ff" stroke-opacity="0.3" stroke-width="2"/><line x1="630.0" y1="372" x2="180.0" y2="540" stroke="#00e5ff" stroke-opacity="0.3" stroke-width="2"/><line x1="630.0" y1="372" x2="330.0" y2="540" stroke="#00e5ff" stroke-opacity="0.3" stroke-width="2"/><line x1="630.0" y1="372" x2="480.0" y2="540" stroke="#00e5ff" stroke-opacity="0.3" stroke-width="2"/><line x1="630.0" y1="372" x2="630.0" y2="540" stroke="#00e5ff" stroke-opacity="0.3" stroke-width="2"/><line x1="630.0" y1="372" x2="780.0" y2="540" stroke="#00e5ff" stroke-opacity="0.3" stroke-width="2"/><line x1="630.0" y1="372" x2="930.0" y2="540" stroke="#00e5ff" stroke-opacity="0.3" stroke-width="2"/><line x1="630.0" y1="372" x2="1080.0" y2="540" stroke="#00e5ff" stroke-opacity="0.3" stroke-width="2"/><line x1="630.0" y1="372" x2="1230.0" y2="540" stroke="#00e5ff" stroke-opacity="0.3" stroke-width="2"/><line x1="630.0" y1="372" x2="1380.0" y2="540" stroke="#00e5ff" stroke-opacity="0.3" stroke-width="2"/><line x1="630.0" y1="372" x2="1530.0" y2="540" stroke="#00e5ff" stroke-opacity="0.3" stroke-width="2"/><line x1="630.0" y1="372" x2="1680.0" y2="540" stroke="#00e5ff" stroke-opacity="0.3" stroke-width="2"/><line x1="630.0" y1="372" x2="1830.0" y2="540" stroke="#00e5ff" stroke-opacity="0.3" stroke-width="2"/><line x1="630.0" y1="372" x2="1980.0" y2="540" stroke="#00e5ff" stroke-opacity="0.3" stroke-width="2"/><line x1="630.0" y1="372" x2="2130.0" y2="540" stroke="#00e5ff" stroke-opacity="0.3" stroke-width="2"/>
<ellipse cx="630.0" cy="442" rx="300" ry="20" fill="#000" opacity="0.45"/>
<g transform="translate(240 66) scale(1.3)"><use href="#fg" filter="url(#gl)" opacity="0.85"/><use href="#fg"/></g>
</svg>