<svg xmlns="http://www.w3.org/2000/svg" viewBox="0 0 1260 540" preserveAspectRatio="xMidYMid slice" role="img">
<defs>
<linearGradient id="bg" x1="0" y1="0" x2="0" y2="1"><stop offset="0" stop-color="#0a0420"/><stop offset="1" stop-color="#4a1250"/></linearGradient>
<linearGradient id="sun" x1="0" y1="0" x2="0" y2="1"><stop offset="0" stop-color="#ff7a30"/><stop offset="1" stop-color="#ff2fd0"/></linearGradient>
<linearGradient id="sg" gradientUnits="userSpaceOnUse" x1="0" y1="0" x2="600" y2="300"><stop offset="0" stop-color="#00e5ff"/><stop offset="1" stop-color="#7b2ff7"/></linearGradient>
<mask id="sm"><rect width="1260" height="540" fill="#fff"/><rect x="0" y="263.6" width="1260" height="4.5" fill="#000"/><rect x="0" y="278.4" width="1260" height="6.0" fill="#000"/><rect x="0" y="296.4" width="1260" height="7.5" fill="#000"/><rect x="0" y="317.6" width="1260" height="9.0" fill="#000"/><rect x="0" y="342.0" width="1260" height="10.5" fill="#000"/><rect x="0" y="369.6" width="1260" height="12.0" fill="#000"/><rect x="0" y="400.4" width="1260" height="13.5" fill="#000"/><rect x="0" y="434.4" width="1260" height="15.0" fill="#000"/></mask>
<filter id="gl" x="-20%" y="-30%" width="140%" height="160%"><feGaussianBlur stdDeviation="9"/></filter>
<g id="fg" fill="#12062a" fill-opacity="0.93" stroke="url(#sg)" stroke-width="4" stroke-linejoin="round" stroke-linecap="round"><path d="M56 172 Q150 120 380 120 L520 140 Q584 150 584 166 Q564 188 470 192 L150 198 Q78 198 56 172 Z" /><polygon points="96,172 70,96 134,96 178,172" /><polygon points="310,180 240,262 300,262 386,184" /><rect x="430" y="142" width="40" height="18" rx="4" fill="none" stroke-width="2" stroke-opacity="0.7"/><rect x="366" y="140" width="40" height="18" rx="4" fill="none" stroke-width="2" stroke-opacity="0.7"/><rect x="300" y="140" width="40" height="18" rx="4" fill="none" stroke-width="2" stroke-opacity="0.7"/><ellipse cx="228" cy="196" rx="26" ry="20" /><path d="M40 232 L130 232 M20 252 L110 252" fill="none" stroke="#00e5ff" stroke-width="4" stroke-linecap="round"/></g>
</defs>
<rect width="1260" height="540" fill="url(#bg)"/>
<circle cx="1217" cy="109" r="1" fill="#fff" fill-opacity="0.6"/><circle cx="1035" cy="150" r="1" fill="#fff" fill-opacity="0.6"/><circle cx="41" cy="161" r="2" fill="#fff" fill-opacity="0.9"/><circle cx="886" cy="90" r="1" fill="#fff" fill-opacity="0.9"/><circle cx="1092" cy="262" r="1" fill="#fff" fill-opacity="0.6"/><circle cx="1198" cy="55" r="1.5" fill="#fff" fill-opacity="0.4"/><circle cx="1142" cy="233" r="1" fill="#fff" fill-opacity="0.9"/><circle cx="1094" cy="194" r="1" fill="#fff" fill-opacity="0.4"/><circle cx="395" cy="181" r="1.5" fill="#fff" fill-opacity="0.6"/><circle cx="589" cy="46" r="2" fill="#fff" fill-opacity="0.6"/><circle cx="122" cy="242" r="1" fill="#fff" fill-opacity="0.4"/><circle cx="504" cy="214" r="1" fill="#fff" fill-opacity="0.4"/><circle cx="1211" cy="81" r="1.5" fill="#fff" fill-opacity="0.6"/><circle cx="788" cy="144" r="1" fill="#fff" fill-opacity="0.6"/><circle cx="321" cy="100" r="1.5" fill="#fff" fill-opacity="0.6"/><circle cx="562" cy="216" r="1" fill="#fff" fill-opacity="0.4"/><circle cx="273" cy="10" r="2" fill="#fff" fill-opacity="0.6"/><circle cx="1102" cy="212" r="1.5" fill="#fff" fill-opacity="0.6"/><circle cx="108" cy="144" r="1" fill="#fff" fill-opacity="0.9"/><circle cx="1055" cy="95" r="1" fill="#fff" fill-opacity="0.9"/><circle cx="629" cy="110" r="1.5" fill="#fff" fill-opacity="0.9"/><circle cx="565" cy="94" r="1" fill="#fff" fill-opacity="0.6"/><circle cx="1154" cy="241" r="1.5" fill="#fff" fill-opacity="0.9"/><circle cx="533" cy="274" r="2" fill="#fff" fill-opacity="0.4"/><circle cx="931" cy="71" r="1" fill="#fff" fill-opacity="0.6"/><circle cx="882" cy="26" r="1" fill="#fff" fill-opacity="0.4"/><circle cx="327" cy="250" r="1.5" fill="#fff" fill-opacity="0.6"/><circle cx="144" cy="125" r="1" fill="#fff" fill-opacity="0.6"/><circle cx="555" cy="200" r="2" fill="#fff" fill-opacity="0.6"/><circle cx="275" cy="33" r="2" fill="#fff" fill-opacity="0.6"/><circle cx="124" cy="125" r="1" fill="#fff" fill-opacity="0.6"/><circle cx="409" cy="212" r="1" fill="#fff" fill-opacity="0.9"/><circle cx="994" cy="165" r="1" fill="#fff" fill-opacity="0.9"/><circle cx="232" cy="80" r="2" fill="#fff" fill-opacity="0.4"/><circle cx="563" cy="222" r="1" fill="#fff" fill-opacity="0.6"/><circle cx="1195" cy="231" r="2" fill="#fff" fill-opacity="0.9"/><circle cx="566" cy="70" r="1.5" fill="#fff" fill-opacity="0.4"/><circle cx="236" cy="266" r="1" fill="#fff" fill-opacity="0.6"/><circle cx="1017" cy="260" r="1" fill="#fff" fill-opacity="0.9"/><circle cx="127" cy="132" r="1.5" fill="#fff" fill-opacity="0.6"/><circle cx="195" cy="135" r="1.5" fill="#fff" fill-opacity="0.4"/><circle cx="175" cy="172" r="1.5" fill="#fff" fill-opacity="0.6"/><circle cx="1112" cy="148" r="2" fill="#fff" fill-opacity="0.4"/><circle cx="581" cy="165" r="2" fill="#fff" fill-opacity="0.9"/><circle cx="813" cy="244" r="1" fill="#fff" fill-opacity="0.6"/><circle cx="216" cy="175" r="2" fill="#fff" fill-opacity="0.6"/>
<circle cx="630.0" cy="362" r="200" fill="url(#sun)" mask="url(#sm)" opacity="0.92"/>
<rect y="372" width="1260" height="168" fill="#0a0318"/>
<line x1="0" y1="374" x2="1260" y2="374" stroke="#7b2ff7" stroke-opacity="0.35" stroke-width="2"/><line x1="0" y1="380" x2="1260" y2="380" stroke="#7b2ff7" stroke-opacity="0.35" stroke-width="2"/><line x1="0" y1="390" x2="1260" y2="390" stroke="#7b2ff7" stroke-opacity="0.35" stroke-width="2"/><line x1="0" y1="405" x2="1260" y2="405" stroke="#7b2ff7" stroke-opacity="0.35" stroke-width="2"/><line x1="0" y1="423" x2="1260" y2="423" stroke="#7b2ff7" stroke-opacity="0.35" stroke-width="2"/><line x1="0" y1="446" x2="1260" y2="446" stroke="#7b2ff7" stroke-opacity="0.35" stroke-width="2"/><line x1="0" y1="473" x2="1260" y2="473" stroke="#7b2ff7" stroke-opacity="0.35" stroke-width="2"/><line x1="0" y1="504" x2="1260" y2="504" stroke="#7b2ff7" stroke-opacity="0.35" stroke-width="2"/><line x1="0" y1="540" x2="1260" y2="540" stroke="#7b2ff7" stroke-opacity="0.35" stroke-width="2"/><line x1="630.0" y1="372" x2="-870.0" y2="540" stroke="#7b2ff7" stroke-opacity="0.3" stroke-width="2"/><line x1="630.0" y1="372" x2="-720.0" y2="540" stroke="#7b2ff7" stroke-opacity="0.3" stroke-width="2"/><line x1="630.0" y1="372" x2="-570.0" y2="540" stroke="#7b2ff7" stroke-opacity="0.3" stroke-width="2"/><line x1="630.0" y1="372" x2="-420.0" y2="540" stroke="#7b2ff7" stroke-opacity="0.3" stroke-width="2"/><line x1="630.0" y1="372" x2="-270.0" y2="540" stroke="#7b2ff7" stroke-opacity="0.3" stroke-width="2"/><line x1="630.0" y1="372" x2="-120.0" y2="540" stroke="#7b2ff7" stroke-opacity="0.3" stroke-width="2"/><line x1="630.0" y1="372" x2="30.0" y2="540" stroke="#7b2ff7" stroke-opacity="0.3" stroke-width="2"/><line x1="630.0" y1="372" x2="180.0" y2="540" stroke="#7b2ff7" stroke-opacity="0.3" stroke-width="2"/><line x1="630.0" y1="372" x2="330.0" y2="540" stroke="#7b2ff7" stroke-opacity="0.3" stroke-width="2"/><line x1="630.0" y1="372" x2="480.0" y2="540" stroke="#7b2ff7" stroke-opacity="0.3" stroke-width="2"/><line x1="630.0" y1="372" x2="630.0" y2="540" stroke="#7b2ff7" stroke-opacity="0.3" stroke-width="2"/><line x1="630.0" y1="372" x2="780.0" y2="540" stroke="#7b2ff7" stroke-opacity="0.3" stroke-width="2"/><line x1="630.0" y1="372" x2="930.0" y2="540" stroke="#7b2ff7" stroke-opacity="0.3" stroke-width="2"/><line x1="630.0" y1="372" x2="1080.0" y2="540" stroke="#7b2ff7" stroke-opacity="0.3" stroke-width="2"/><line x1="630.0" y1="372" x2="1230.0" y2="540" stroke="#7b2ff7" stroke-opacity="0.3" stroke-width="2"/><line x1="630.0" y1="372" x2="1380.0" y2="540" stroke="#7b2ff7" stroke-opacity="0.3" stroke-width="2"/><line x1="630.0" y1="372" x2="1530.0" y2="540" stroke="#7b2ff7" stroke-opacity="0.3" stroke-width="2"/><line x1="630.0" y1="372" x2="1680.0" y2="540" stroke="#7b2ff7" stroke-opacity="0.3" stroke-width="2"/><line x1="630.0" y1="372" x2="1830.0" y2="540" stroke="#7b2ff7" stroke-opacity="0.3" stroke-width="2"/><line x1="630.0" y1="372" x2="1980.0" y2="540" stroke="#7b2ff7" stroke-opacity="0.3" stroke-width="2"/><line x1="630.0" y1="372" x2="2130.0" y2="540" stroke="#7b2ff7" stroke-opacity="0.3" stroke-width="2"/>
<ellipse cx="630.0" cy="442" rx="300" ry="20" fill="#000" opacity="0.45"/>
<g transform="translate(240 66) scale(1.3)"><use href="#fg" filter="url(#gl)" opacity="0.85"/><use href="#fg"/></g>
</svg>