<svg xmlns="http://www.w3.org/2000/svg" viewBox="0 0 1260 540" preserveAspectRatio="xMidYMid slice" role="img">
<defs>
<linearGradient id="bg" x1="0" y1="0" x2="0" y2="1"><stop offset="0" stop-color="#0a0420"/><stop offset="1" stop-color="#4a1250"/></linearGradient>
<linearGradient id="sun" x1="0" y1="0" x2="0" y2="1"><stop offset="0" stop-color="#ff7a30"/><stop offset="1" stop-color="#ff2fd0"/></linearGradient>
<linearGradient id="sg" gradientUnits="userSpaceOnUse" x1="0" y1="0" x2="600" y2="300"><stop offset="0" stop-color="#00e5ff"/><stop offset="1" stop-color="#7b2ff7"/></linearGradient>
<mask id="sm"><rect width="1260" height="540" fill="#fff"/><rect x="0" y="263.6" width="1260" height="4.5" fill="#000"/><rect x="0" y="278.4" width="1260" height="6.0" fill="#000"/><rect x="0" y="296.4" width="1260" height="7.5" fill="#000"/><rect x="0" y="317.6" width="1260" height="9.0" fill="#000"/><rect x="0" y="342.0" width="1260" height="10.5" fill="#000"/><rect x="0" y="369.6" width="1260" height="12.0" fill="#000"/><rect x="0" y="400.4" width="1260" height="13.5" fill="#000"/><rect x="0" y="434.4" width="1260" height="15.0" fill="#000"/></mask>
<filter id="gl" x="-20%" y="-30%" width="140%" height="160%"><feGaussianBlur stdDeviation="9"/></filter>
<g id="fg" fill="#12062a" fill-opacity="0.93" stroke="url(#sg)" stroke-width="4" stroke-linejoin="round" stroke-linecap="round"><path d="M120 170 Q150 146 330 146 L470 160 L490 176 L330 200 Q150 204 120 170 Z" /><rect x="150" y="96" width="310" height="20" rx="8" /><rect x="130" y="206" width="340" height="20" rx="8" /><path d="M200 116 L210 148 M410 116 L400 148 M200 206 L210 190 M410 206 L400 190" fill="none" stroke="#00e5ff" stroke-width="4" stroke-linecap="round"/><polygon points="120,170 70,120 100,116 150,160" /><circle cx="486" cy="168" r="12" /><rect x="494" y="128" width="10" height="80" rx="4" /><circle cx="250" cy="246" r="22" /><circle cx="350" cy="246" r="22" /><path d="M250 202 L250 246 M350 200 L350 246" fill="none"/></g>
</defs>
<rect width="1260" height="540" fill="url(#bg)"/>
<circle cx="972" cy="146" r="1.5" fill="#fff" fill-opacity="0.6"/><circle cx="415" cy="76" r="1" fill="#fff" fill-opacity="0.9"/><circle cx="1163" cy="125" r="2" fill="#fff" fill-opacity="0.6"/><circle cx="563" cy="215" r="1" fill="#fff" fill-opacity="0.6"/><circle cx="906" cy="65" r="2" fill="#fff" fill-opacity="0.6"/><circle cx="136" cy="42" r="2" fill="#fff" fill-opacity="0.4"/><circle cx="884" cy="210" r="1" fill="#fff" fill-opacity="0.4"/><circle cx="14" cy="34" r="1" fill="#fff" fill-opacity="0.9"/><circle cx="398" cy="101" r="1.5" fill="#fff" fill-opacity="0.4"/><circle cx="1038" cy="137" r="1.5" fill="#fff" fill-opacity="0.6"/><circle cx="1016" cy="93" r="1" fill="#fff" fill-opacity="0.6"/><circle cx="746" cy="27" r="2" fill="#fff" fill-opacity="0.9"/><circle cx="740" cy="253" r="1.5" fill="#fff" fill-opacity="0.4"/><circle cx="94" cy="58" r="2" fill="#fff" fill-opacity="0.6"/><circle cx="778" cy="74" r="1" fill="#fff" fill-opacity="0.4"/><circle cx="359" cy="108" r="1" fill="#fff" fill-opacity="0.6"/><circle cx="753" cy="195" r="1" fill="#fff" fill-opacity="0.9"/><circle cx="54" cy="240" r="1.5" fill="#fff" fill-opacity="0.9"/><circle cx="1079" cy="232" r="1" fill="#fff" fill-opacity="0.9"/><circle cx="201" cy="213" r="1" fill="#fff" fill-opacity="0.6"/><circle cx="462" cy="270" r="1" fill="#fff" fill-opacity="0.9"/><circle cx="613" cy="71" r="1.5" fill="#fff" fill-opacity="0.6"/><circle cx="1223" cy="21" r="1" fill="#fff" fill-opacity="0.9"/><circle cx="469" cy="260" r="1" fill="#fff" fill-opacity="0.9"/><circle cx="947" cy="90" r="1" fill="#fff" fill-opacity="0.6"/><circle cx="569" cy="87" r="1" fill="#fff" fill-opacity="0.4"/><circle cx="217" cy="147" r="1" fill="#fff" fill-opacity="0.4"/><circle cx="198" cy="23" r="1" fill="#fff" fill-opacity="0.6"/><circle cx="1114" cy="115" r="2" fill="#fff" fill-opacity="0.6"/><circle cx="474" cy="148" r="1" fill="#fff" fill-opacity="0.9"/><circle cx="43" cy="114" r="1" fill="#fff" fill-opacity="0.6"/><circle cx="209" cy="113" r="2" fill="#fff" fill-opacity="0.4"/><circle cx="754" cy="164" r="1" fill="#fff" fill-opacity="0.9"/><circle cx="1083" cy="22" r="2" fill="#fff" fill-opacity="0.6"/><circle cx="1217" cy="276" r="2" fill="#fff" fill-opacity="0.6"/><circle cx="372" cy="109" r="1" fill="#fff" fill-opacity="0.9"/><circle cx="1209" cy="264" r="1" fill="#fff" fill-opacity="0.4"/><circle cx="410" cy="221" r="1.5" fill="#fff" fill-opacity="0.6"/><circle cx="528" cy="193" r="1" fill="#fff" fill-opacity="0.9"/><circle cx="714" cy="186" r="1" fill="#fff" fill-opacity="0.6"/><circle cx="880" cy="275" r="1" fill="#fff" fill-opacity="0.9"/><circle cx="562" cy="256" r="2" fill="#fff" fill-opacity="0.6"/><circle cx="497" cy="156" r="1" fill="#fff" fill-opacity="0.4"/><circle cx="1182" cy="201" r="1" fill="#fff" fill-opacity="0.6"/><circle cx="738" cy="27" r="1.5" fill="#fff" fill-opacity="0.6"/><circle cx="1078" cy="137" r="1.5" fill="#fff" fill-opacity="0.6"/>
<circle cx="630.0" cy="362" r="200" fill="url(#sun)" mask="url(#sm)" opacity="0.92"/>
<rect y="372" width="1260" height="168" fill="#0a0318"/>
<line x1="0" y1="374" x2="1260" y2="374" stroke="#7b2ff7" stroke-opacity="0.35" stroke-width="2"/><line x1="0" y1="380" x2="1260" y2="380" stroke="#7b2ff7" stroke-opacity="0.35" stroke-width="2"/><line x1="0" y1="390" x2="1260" y2="390" stroke="#7b2ff7" stroke-opacity="0.35" stroke-width="2"/><line x1="0" y1="405" x2="1260" y2="405" stroke="#7b2ff7" stroke-opacity="0.35" stroke-width="2"/><line x1="0" y1="423" x2="1260" y2="423" stroke="#7b2ff7" stroke-opacity="0.35" stroke-width="2"/><line x1="0" y1="446" x2="1260" y2="446" stroke="#7b2ff7" stroke-opacity="0.35" stroke-width="2"/><line x1="0" y1="473" x2="1260" y2="473" stroke="#7b2ff7" stroke-opacity="0.35" stroke-width="2"/><line x1="0" y1="504" x2="1260" y2="504" stroke="#7b2ff7" stroke-opacity="0.35" stroke-width="2"/><line x1="0" y1="540" x2="1260" y2="540" stroke="#7b2ff7" stroke-opacity="0.35" stroke-width="2"/><line x1="630.0" y1="372" x2="-870.0" y2="540" stroke="#7b2ff7" stroke-opacity="0.3" stroke-width="2"/><line x1="630.0" y1="372" x2="-720.0" y2="540" stroke="#7b2ff7" stroke-opacity="0.3" stroke-width="2"/><line x1="630.0" y1="372" x2="-570.0" y2="540" stroke="#7b2ff7" stroke-opacity="0.3" stroke-width="2"/><line x1="630.0" y1="372" x2="-420.0" y2="540" stroke="#7b2ff7" stroke-opacity="0.3" stroke-width="2"/><line x1="630.0" y1="372" x2="-270.0" y2="540" stroke="#7b2ff7" stroke-opacity="0.3" stroke-width="2"/><line x1="630.0" y1="372" x2="-120.0" y2="540" stroke="#7b2ff7" stroke-opacity="0.3" stroke-width="2"/><line x1="630.0" y1="372" x2="30.0" y2="540" stroke="#7b2ff7" stroke-opacity="0.3" stroke-width="2"/><line x1="630.0" y1="372" x2="180.0" y2="540" stroke="#7b2ff7" stroke-opacity="0.3" stroke-width="2"/><line x1="630.0" y1="372" x2="330.0" y2="540" stroke="#7b2ff7" stroke-opacity="0.3" stroke-width="2"/><line x1="630.0" y1="372" x2="480.0" y2="540" stroke="#7b2ff7" stroke-opacity="0.3" stroke-width="2"/><line x1="630.0" y1="372" x2="630.0" y2="540" stroke="#7b2ff7" stroke-opacity="0.3" stroke-width="2"/><line x1="630.0" y1="372" x2="780.0" y2="540" stroke="#7b2ff7" stroke-opacity="0.3" stroke-width="2"/><line x1="630.0" y1="372" x2="930.0" y2="540" stroke="#7b2ff7" stroke-opacity="0.3" stroke-width="2"/><line x1="630.0" y1="372" x2="1080.0" y2="540" stroke="#7b2ff7" stroke-opacity="0.3" stroke-width="2"/><line x1="630.0" y1="372" x2="1230.0" y2="540" stroke="#7b2ff7" stroke-opacity="0.3" stroke-width="2"/><line x1="630.0" y1="372" x2="1380.0" y2="540" stroke="#7b2ff7" stroke-opacity="0.3" stroke-width="2"/><line x1="630.0" y1="372" x2="1530.0" y2="540" stroke="#7b2ff7" stroke-opacity="0.3" stroke-width="2"/><line x1="630.0" y1="372" x2="1680.0" y2="540" stroke="#7b2ff7" stroke-opacity="0.3" stroke-width="2"/><line x1="630.0" y1="372" x2="1830.0" y2="540" stroke="#7b2ff7" stroke-opacity="0.3" stroke-width="2"/><line x1="630.0" y1="372" x2="1980.0" y2="540" stroke="#7b2ff7" stroke-opacity="0.3" stroke-width="2"/><line x1="630.0" y1="372" x2="2130.0" y2="540" stroke="#7b2ff7" stroke-opacity="0.3" stroke-width="2"/>
<ellipse cx="630.0" cy="442" rx="300" ry="20" fill="#000" opacity="0.45"/>
<g transform="translate(240 66) scale(1.3)"><use href="#fg" filter="url(#gl)" opacity="0.85"/><use href="#fg"/></g>
</svg>