<svg xmlns="http://www.w3.org/2000/svg" viewBox="0 0 1260 540" preserveAspectRatio="xMidYMid slice" role="img">
<defs>
<linearGradient id="bg" x1="0" y1="0" x2="0" y2="1"><stop offset="0" stop-color="#07122c"/><stop offset="1" stop-color="#3a1260"/></linearGradient>
<linearGradient id="sun" x1="0" y1="0" x2="0" y2="1"><stop offset="0" stop-color="#ffd166"/><stop offset="1" stop-color="#ff7a30"/></linearGradient>
<linearGradient id="sg" gradientUnits="userSpaceOnUse" x1="0" y1="0" x2="600" y2="300"><stop offset="0" stop-color="#ffd166"/><stop offset="1" stop-color="#00e5ff"/></linearGradient>
<mask id="sm"><rect width="1260" height="540" fill="#fff"/><rect x="0" y="263.6" width="1260" height="4.5" fill="#000"/><rect x="0" y="278.4" width="1260" height="6.0" fill="#000"/><rect x="0" y="296.4" width="1260" height="7.5" fill="#000"/><rect x="0" y="317.6" width="1260" height="9.0" fill="#000"/><rect x="0" y="342.0" width="1260" height="10.5" fill="#000"/><rect x="0" y="369.6" width="1260" height="12.0" fill="#000"/><rect x="0" y="400.4" width="1260" height="13.5" fill="#000"/><rect x="0" y="434.4" width="1260" height="15.0" fill="#000"/></mask>
<filter id="gl" x="-20%" y="-30%" width="140%" height="160%"><feGaussianBlur stdDeviation="9"/></filter>
<g id="fg" fill="#12062a" fill-opacity="0.93" stroke="url(#sg)" stroke-width="4" stroke-linejoin="round" stroke-linecap="round"><path d="M300 40 Q200 40 200 140 Q200 190 244 220 L244 250 L356 250 L356 220 Q400 190 400 140 Q400 40 300 40 Z" /><rect x="246" y="250" width="108" height="18" rx="6" /><rect x="256" y="268" width="88" height="18" rx="8" /><path d="M268 150 L300 120 L332 150 M300 120 L300 220" fill="none" stroke="#ffd166" stroke-width="5" stroke-linecap="round"/><path d="M300 6 L300 -6 M130 60 L106 40 M470 60 L494 40 M104 150 L72 150 M496 150 L528 150" fill="none" stroke="#ffd166" stroke-width="5" stroke-linecap="round"/></g>
</defs>
<rect width="1260" height="540" fill="url(#bg)"/>
<circle cx="494" cy="207" r="1" fill="#fff" fill-opacity="0.4"/><circle cx="1088" cy="38" r="1.5" fill="#fff" fill-opacity="0.6"/><circle cx="242" cy="124" r="1.5" fill="#fff" fill-opacity="0.4"/><circle cx="812" cy="75" r="1.5" fill="#fff" fill-opacity="0.4"/><circle cx="911" cy="158" r="1" fill="#fff" fill-opacity="0.6"/><circle cx="286" cy="136" r="2" fill="#fff" fill-opacity="0.6"/><circle cx="679" cy="27" r="1" fill="#fff" fill-opacity="0.4"/><circle cx="788" cy="169" r="2" fill="#fff" fill-opacity="0.4"/><circle cx="882" cy="263" r="1" fill="#fff" fill-opacity="0.6"/><circle cx="1149" cy="271" r="2" fill="#fff" fill-opacity="0.9"/><circle cx="150" cy="80" r="1" fill="#fff" fill-opacity="0.4"/><circle cx="497" cy="187" r="1" fill="#fff" fill-opacity="0.6"/><circle cx="558" cy="23" r="1" fill="#fff" fill-opacity="0.4"/><circle cx="515" cy="47" r="2" fill="#fff" fill-opacity="0.9"/><circle cx="879" cy="115" r="1" fill="#fff" fill-opacity="0.6"/><circle cx="1216" cy="121" r="1" fill="#fff" fill-opacity="0.4"/><circle cx="953" cy="262" r="1" fill="#fff" fill-opacity="0.4"/><circle cx="173" cy="178" r="1" fill="#fff" fill-opacity="0.4"/><circle cx="746" cy="169" r="1" fill="#fff" fill-opacity="0.6"/><circle cx="929" cy="115" r="2" fill="#fff" fill-opacity="0.6"/><circle cx="844" cy="130" r="1" fill="#fff" fill-opacity="0.4"/><circle cx="1171" cy="249" r="2" fill="#fff" fill-opacity="0.9"/><circle cx="338" cy="203" r="1.5" fill="#fff" fill-opacity="0.6"/><circle cx="999" cy="70" r="2" fill="#fff" fill-opacity="0.6"/><circle cx="956" cy="67" r="1" fill="#fff" fill-opacity="0.4"/><circle cx="181" cy="210" r="1" fill="#fff" fill-opacity="0.6"/><circle cx="841" cy="173" r="1" fill="#fff" fill-opacity="0.4"/><circle cx="1172" cy="262" r="2" fill="#fff" fill-opacity="0.6"/><circle cx="25" cy="253" r="1" fill="#fff" fill-opacity="0.9"/><circle cx="332" cy="173" r="1" fill="#fff" fill-opacity="0.9"/><circle cx="636" cy="256" r="2" fill="#fff" fill-opacity="0.4"/><circle cx="216" cy="26" r="2" fill="#fff" fill-opacity="0.4"/><circle cx="160" cy="30" r="1" fill="#fff" fill-opacity="0.9"/><circle cx="830" cy="178" r="2" fill="#fff" fill-opacity="0.6"/><circle cx="906" cy="107" r="2" fill="#fff" fill-opacity="0.4"/><circle cx="940" cy="116" r="1" fill="#fff" fill-opacity="0.9"/><circle cx="791" cy="199" r="1" fill="#fff" fill-opacity="0.9"/><circle cx="637" cy="218" r="1" fill="#fff" fill-opacity="0.4"/><circle cx="601" cy="117" r="1" fill="#fff" fill-opacity="0.4"/><circle cx="668" cy="231" r="2" fill="#fff" fill-opacity="0.4"/><circle cx="833" cy="172" r="1" fill="#fff" fill-opacity="0.6"/><circle cx="271" cy="155" r="1" fill="#fff" fill-opacity="0.6"/><circle cx="898" cy="99" r="1" fill="#fff" fill-opacity="0.4"/><circle cx="670" cy="79" r="1" fill="#fff" fill-opacity="0.4"/><circle cx="881" cy="165" r="1.5" fill="#fff" fill-opacity="0.6"/><circle cx="567" cy="62" r="2" fill="#fff" fill-opacity="0.6"/>
<circle cx="630.0" cy="362" r="200" fill="url(#sun)" mask="url(#sm)" opacity="0.92"/>
<rect y="372" width="1260" height="168" fill="#0a0318"/>
<line x1="0" y1="374" x2="1260" y2="374" stroke="#00e5ff" stroke-opacity="0.35" stroke-width="2"/><line x1="0" y1="380" x2="1260" y2="380" stroke="#00e5ff" stroke-opacity="0.35" stroke-width="2"/><line x1="0" y1="390" x2="1260" y2="390" stroke="#00e5ff" stroke-opacity="0.35" stroke-width="2"/><line x1="0" y1="405" x2="1260" y2="405" stroke="#00e5ff" stroke-opacity="0.35" stroke-width="2"/><line x1="0" y1="423" x2="1260" y2="423" stroke="#00e5ff" stroke-opacity="0.35" stroke-width="2"/><line x1="0" y1="446" x2="1260" y2="446" stroke="#00e5ff" stroke-opacity="0.35" stroke-width="2"/><line x1="0" y1="473" x2="1260" y2="473" stroke="#00e5ff" stroke-opacity="0.35" stroke-width="2"/><line x1="0" y1="504" x2="1260" y2="504" stroke="#00e5ff" stroke-opacity="0.35" stroke-width="2"/><line x1="0" y1="540" x2="1260" y2="540" stroke="#00e5ff" stroke-opacity="0.35" stroke-width="2"/><line x1="630.0" y1="372" x2="-870.0" y2="540" stroke="#00e5ff" stroke-opacity="0.3" stroke-width="2"/><line x1="630.0" y1="372" x2="-720.0" y2="540" stroke="#00e5ff" stroke-opacity="0.3" stroke-width="2"/><line x1="630.0" y1="372" x2="-570.0" y2="540" stroke="#00e5ff" stroke-opacity="0.3" stroke-width="2"/><line x1="630.0" y1="372" x2="-420.0" y2="540" stroke="#00e5ff" stroke-opacity="0.3" stroke-width="2"/><line x1="630.0" y1="372" x2="-270.0" y2="540" stroke="#00e5ff" stroke-opacity="0.3" stroke-width="2"/><line x1="630.0" y1="372" x2="-120.0" y2="540" stroke="#00e5ff" stroke-opacity="0.3" stroke-width="2"/><line x1="630.0" y1="372" x2="30.0" y2="540" stroke="#00e5ff" stroke-opacity="0.3" stroke-width="2"/><line x1="630.0" y1="372" x2="180.0" y2="540" stroke="#00e5ff" stroke-opacity="0.3" stroke-width="2"/><line x1="630.0" y1="372" x2="330.0" y2="540" stroke="#00e5ff" stroke-opacity="0.3" stroke-width="2"/><line x1="630.0" y1="372" x2="480.0" y2="540" stroke="#00e5ff" stroke-opacity="0.3" stroke-width="2"/><line x1="630.0" y1="372" x2="630.0" y2="540" stroke="#00e5ff" stroke-opacity="0.3" stroke-width="2"/><line x1="630.0" y1="372" x2="780.0" y2="540" stroke="#00e5ff" stroke-opacity="0.3" stroke-width="2"/><line x1="630.0" y1="372" x2="930.0" y2="540" stroke="#00e5ff" stroke-opacity="0.3" stroke-width="2"/><line x1="630.0" y1="372" x2="1080.0" y2="540" stroke="#00e5ff" stroke-opacity="0.3" stroke-width="2"/><line x1="630.0" y1="372" x2="1230.0" y2="540" stroke="#00e5ff" stroke-opacity="0.3" stroke-width="2"/><line x1="630.0" y1="372" x2="1380.0" y2="540" stroke="#00e5ff" stroke-opacity="0.3" stroke-width="2"/><line x1="630.0" y1="372" x2="1530.0" y2="540" stroke="#00e5ff" stroke-opacity="0.3" stroke-width="2"/><line x1="630.0" y1="372" x2="1680.0" y2="540" stroke="#00e5ff" stroke-opacity="0.3" stroke-width="2"/><line x1="630.0" y1="372" x2="1830.0" y2="540" stroke="#00e5ff" stroke-opacity="0.3" stroke-width="2"/><line x1="630.0" y1="372" x2="1980.0" y2="540" stroke="#00e5ff" stroke-opacity="0.3" stroke-width="2"/><line x1="630.0" y1="372" x2="2130.0" y2="540" stroke="#00e5ff" stroke-opacity="0.3" stroke-width="2"/>
<ellipse cx="630.0" cy="442" rx="300" ry="20" fill="#000" opacity="0.45"/>
<g transform="translate(240 66) scale(1.3)"><use href="#fg" filter="url(#gl)" opacity="0.85"/><use href="#fg"/></g>
</svg>